<svg width="48" height="30" viewBox="0 0 48 30" fill="none" xmlns="http://www.w3.org/2000/svg">
<path fill-rule="evenodd" clip-rule="evenodd" d="M2 0C0.895431 0 0 0.89543 0 2V28C0 29.1046 0.895432 30 2 30H46C47.1046 30 48 29.1046 48 28V2C48 0.895431 47.1046 0 46 0H2ZM18.2628 19.7727V7.90578L22.8336 7.90585C25.1932 7.90585 26.8418 9.48915 26.8418 11.8031C26.8418 14.1171 25.1619 15.7156 22.7711 15.7156H20.1536V19.7727H18.2628ZM20.1536 9.45863H22.3335C23.9743 9.45863 24.9119 10.3111 24.9119 11.8106C24.9119 13.3101 23.9743 14.1703 22.3257 14.1703H20.1536V9.45863ZM11.9885 10.1133C11.3277 10.0762 10.7248 10.3068 10.2377 10.4931C9.92431 10.613 9.6589 10.7145 9.45698 10.7145C9.23042 10.7145 8.95407 10.6076 8.64378 10.4875C8.23719 10.3302 7.77232 10.1503 7.28486 10.1589C6.1676 10.1741 5.12838 10.7906 4.55798 11.7726C3.38595 13.7364 4.2533 16.6442 5.38619 18.2426C5.94096 19.0342 6.6051 19.902 7.48018 19.8715C7.8652 19.8574 8.14215 19.7429 8.42877 19.6244C8.75873 19.4881 9.10151 19.3464 9.63674 19.3464C10.1534 19.3464 10.4812 19.4844 10.7958 19.6168C11.095 19.7428 11.3823 19.8637 11.8089 19.8563C12.7152 19.8411 13.2856 19.0648 13.8403 18.2731C14.439 17.4235 14.7021 16.5942 14.742 16.4684L14.7467 16.4538C14.7467 16.4538 14.7383 16.4496 14.7253 16.4438C14.5251 16.3545 12.9956 15.6724 12.9809 13.843C12.9662 12.3075 14.1941 11.5296 14.3874 11.4071C14.3992 11.3997 14.4071 11.3947 14.4107 11.392C13.6293 10.2655 12.4105 10.1437 11.9885 10.1133ZM9.33971 9.96857C10.0898 10.0295 10.8399 9.60317 11.3087 9.06279C11.7696 8.50712 12.0744 7.76117 11.9963 7C11.3321 7.03044 10.5117 7.42629 10.0429 7.98189C9.61315 8.46145 9.24596 9.23792 9.33971 9.96857ZM30.2953 19.8639C31.4829 19.8639 32.5846 19.2779 33.0847 18.3492H33.1237V19.7726H34.874V13.8658C34.874 12.1532 33.4676 11.0495 31.3032 11.0495C29.2951 11.0495 27.8106 12.1684 27.7559 13.706H29.4593C29.5999 12.9753 30.2952 12.4957 31.2485 12.4957C32.4049 12.4957 33.0534 13.0209 33.0534 13.9877V14.6422L30.6937 14.7792C28.4982 14.9086 27.3106 15.784 27.3106 17.3064C27.3106 18.844 28.5372 19.8639 30.2953 19.8639ZM29.1545 17.2607C29.1545 17.9839 29.7953 18.4557 30.8031 18.4557C32.0845 18.4557 33.0534 17.6641 33.0534 16.5528V15.883L30.9516 16.0124C29.7718 16.0809 29.1545 16.5148 29.1545 17.2607ZM40.6794 20.2369C39.9215 22.315 39.0542 23 37.2102 23C37.0695 23 36.6007 22.9848 36.4913 22.9543V21.5309C36.6086 21.5462 36.8976 21.5614 37.0461 21.5614C37.8821 21.5614 38.3509 21.2188 38.64 20.3283L38.8119 19.803L35.6084 11.1636H37.5852L39.812 18.1741H39.8511L42.0779 11.1636H44L40.6794 20.2369Z" fill="#A5AECC"/>
</svg>
