<svg width="20" height="20" viewBox="0 0 20 20" fill="none" xmlns="http://www.w3.org/2000/svg">
<path d="M12.24 8.55858C11.93 9.79858 10 9.16858 9.4 8.99858L9.95 6.81858C10.57 6.99858 12.56 7.25858 12.24 8.55858ZM9.13 10.1186L8.53 12.5286C9.27 12.7186 11.56 13.4486 11.9 12.0886C12.26 10.6686 9.87 10.2986 9.13 10.1186ZM19.7 12.4186C18.36 17.7786 12.94 21.0386 7.58 19.6986C2.22 18.3586 -1.037 12.9386 0.300001 7.57858C0.617644 6.30467 1.18313 5.10581 1.96417 4.05047C2.74521 2.99514 3.72649 2.10401 4.85198 1.42797C5.97747 0.751938 7.22511 0.304243 8.52365 0.110459C9.82218 -0.083325 11.1462 -0.0194022 12.42 0.298577C17.77 1.63858 21.03 7.05858 19.7 12.4186ZM12.21 6.04858L12.66 4.24858L11.56 3.99858L11.12 5.72858C10.83 5.65858 10.54 5.58858 10.24 5.52858L10.68 3.75858L9.59 3.49858L9.14 5.28858C8.9 5.22858 8.66 5.17858 8.44 5.11858L6.93 4.73858L6.63 5.90858C6.63 5.90858 7.45 6.09858 7.43 6.10858C7.88 6.21858 7.96 6.49858 7.94 6.74858L6.71 11.6786C6.66 11.8186 6.5 11.9986 6.21 11.9486C6.22 11.9586 5.41 11.7486 5.41 11.7486L4.87 12.9986L6.29 13.3586C6.56 13.4286 6.82 13.4986 7.08 13.5586L6.62 15.3786L7.72 15.6586L8.17 13.8486C8.47 13.9286 8.76 13.9986 9.04 14.0786L8.59 15.8686L9.69 16.1486L10.15 14.3286C12 14.6786 13.42 14.5386 14 12.8486C14.5 11.4986 14 10.6986 13 10.1886C13.72 9.99858 14.26 9.54858 14.41 8.56858C14.61 7.23858 13.59 6.52858 12.21 6.04858Z" fill="white"/>
</svg>
