<svg width="33" height="28" viewBox="0 0 33 28" fill="none" xmlns="http://www.w3.org/2000/svg">
<path fill-rule="evenodd" clip-rule="evenodd" d="M15.2709 0.100674C12.2353 0.583089 9.73624 2.40501 8.35784 5.14067C5.72147 10.3729 9.06473 16.9706 14.928 18.1065C15.7818 18.2719 17.4536 18.2719 18.3074 18.1065C21.5805 17.4724 24.229 15.1127 25.3223 11.8565C26.6304 7.96022 25.1142 3.75496 21.5714 1.45338C19.7623 0.278142 17.3768 -0.23402 15.2709 0.100674ZM15.2802 2.79223C12.8818 3.32775 11.2328 4.78719 10.4559 7.06192C10.3616 7.33799 10.2936 7.57307 10.3048 7.58424C10.3161 7.59541 10.4716 7.48905 10.6505 7.34786C12.152 6.16282 15.0066 5.49699 17.63 5.71988C19.7133 5.89684 21.4832 6.47836 22.585 7.34786C22.7638 7.48905 22.9193 7.59541 22.9306 7.58424C22.9418 7.57307 22.8738 7.33799 22.7795 7.06192C22.067 4.97692 20.5785 3.55195 18.4582 2.92537C17.6347 2.68195 16.0679 2.61636 15.2802 2.79223ZM3.89449 5.11245C3.68352 5.16912 3.40804 5.26837 3.28246 5.33316C2.88963 5.53559 2.34342 6.10405 2.10478 6.55875L1.87575 6.99524V20.3453L2.0694 20.757C2.46317 21.5942 3.2529 22.1874 4.17142 22.3359C4.79786 22.4372 28.4103 22.4421 29.0301 22.341C29.9744 22.1871 30.7713 21.5961 31.166 20.757L31.3597 20.3453V6.99524L31.1279 6.55353C30.833 5.99109 30.2193 5.42589 29.6669 5.20793C29.2865 5.05782 29.1037 5.04033 27.6549 5.01516C26.1321 4.98867 26.0636 4.99339 26.114 5.12072C26.3092 5.61402 26.6021 6.58241 26.7139 7.10407C26.9017 7.9801 26.9013 10.2228 26.7131 11.0928C26.3924 12.5766 25.8128 13.9164 25.0107 15.0286C23.4502 17.1925 21.2886 18.593 18.6334 19.1607C17.6349 19.3741 15.5061 19.3958 14.6041 19.2017C12.5293 18.7551 11.0193 17.9275 9.48093 16.3938C7.86018 14.7778 6.93104 13.0588 6.48376 10.8483C6.29339 9.90787 6.27846 8.30746 6.451 7.34205C6.54979 6.7894 6.88088 5.68643 7.11595 5.12696C7.16575 5.00841 7.07329 5.00028 5.72373 5.00478C4.71793 5.00812 4.16145 5.04084 3.89449 5.11245ZM16.0619 7.25129C15.6355 7.38254 15.1465 7.77738 14.9288 8.1662C14.2367 9.40202 15.0201 10.8916 16.4204 11.0024C17.2674 11.0695 17.9342 10.7251 18.3134 10.0247C18.995 8.76579 18.1706 7.28706 16.7423 7.20652C16.4936 7.19252 16.1874 7.21269 16.0619 7.25129ZM16.2038 8.40643C15.9105 8.58469 15.8169 8.75962 15.8169 9.12965C15.8169 9.35181 15.8687 9.48132 16.0293 9.66046C16.2173 9.87014 16.2851 9.89742 16.6177 9.89742C16.9503 9.89742 17.0181 9.87014 17.2061 9.66046C17.5795 9.24385 17.4715 8.62619 16.9809 8.37334C16.6988 8.22802 16.4822 8.23723 16.2038 8.40643ZM10.4297 11.1383C10.4297 11.2627 11.0322 12.4377 11.2859 12.8082C11.8857 13.684 12.9501 14.5612 13.9748 15.0242C14.3885 15.2112 15.4787 15.5186 15.7328 15.5199C15.9593 15.5211 15.5668 13.9902 15.1606 13.2888C15.0392 13.0791 14.722 12.6774 14.4558 12.3961C13.9141 11.8239 13.1877 11.4209 12.3179 11.2103C11.8614 11.0997 10.4297 11.0452 10.4297 11.1383ZM20.807 11.2392C19.2792 11.6495 18.1473 12.726 17.6789 14.2144C17.5847 14.5137 17.4845 14.93 17.4563 15.1395C17.3951 15.5927 17.3812 15.5885 18.2368 15.3708C20.125 14.8904 21.6677 13.6023 22.516 11.7981C22.6753 11.4592 22.8057 11.1623 22.8057 11.1383C22.8057 11.0328 21.2909 11.1093 20.807 11.2392ZM0.359113 24.4204C0.263672 24.5155 0.312958 25.1649 0.448511 25.5989C0.799915 26.7241 1.72207 27.5835 2.909 27.8915C3.27118 27.9856 5.07064 27.9998 16.6177 27.9998C31.0954 27.9998 30.2693 28.0228 31.1127 27.5968C32.1596 27.0681 32.9859 25.7537 32.9121 24.7348L32.8885 24.4083L26.6641 24.3871C22.3853 24.3725 20.3551 24.3902 20.169 24.4437C19.9837 24.4971 19.7884 24.649 19.5502 24.9251C19.3587 25.1469 19.1136 25.3745 19.0055 25.4307C18.8492 25.512 18.3608 25.5329 16.6177 25.5329C14.1337 25.5329 14.2182 25.5498 13.7116 24.9511C13.5355 24.743 13.283 24.5275 13.1505 24.4724C12.9518 24.3896 11.8149 24.3721 6.65862 24.3721C3.22058 24.3721 0.385757 24.3938 0.359113 24.4204Z" fill="url(#paint0_linear_2424_22907)"/>
<defs>
<linearGradient id="paint0_linear_2424_22907" x1="32.9167" y1="4.66667" x2="3.71043" y2="14.6329" gradientUnits="userSpaceOnUse">
<stop stop-color="#1095ED"/>
<stop offset="1" stop-color="#E2435F"/>
</linearGradient>
</defs>
</svg>
