<svg width="30" height="30" viewBox="0 0 30 30" fill="none" xmlns="http://www.w3.org/2000/svg">
<path fill-rule="evenodd" clip-rule="evenodd" d="M21.9837 0.0910891C20.976 0.248244 20.1601 0.494583 19.9503 0.705061C19.7463 0.90968 19.7409 1.12338 19.9318 1.43429C20.0821 1.67923 20.1233 2.03344 20.0231 2.22118C19.9922 2.27908 19.8937 2.35578 19.8041 2.39158C19.7145 2.42738 18.1064 2.84066 16.2305 3.31002C14.3546 3.77938 12.7686 4.1909 12.7059 4.22453C12.6433 4.25811 12.5545 4.37583 12.5085 4.48599C12.3924 4.76479 12.5078 5.02601 12.8519 5.2635C12.9959 5.36282 13.1299 5.4867 13.1499 5.53879C13.2173 5.71499 13.1866 5.96185 13.0811 6.09252C13.0087 6.18224 11.4469 6.83641 8.0462 8.20147C5.14922 9.36431 3.06056 10.2342 2.98123 10.3108C2.88385 10.4047 2.84617 10.5072 2.84617 10.6776C2.84617 10.9502 2.91755 11.0268 3.7222 11.6174C4.26747 12.0176 4.40708 12.2167 4.31881 12.4681C4.28832 12.5551 3.32601 14.0089 2.18032 15.6989C1.03464 17.3889 0.0810905 18.8362 0.0612869 18.9153C0.0125083 19.1103 0.0992583 19.33 0.277549 19.4632C0.396954 19.5523 0.730694 19.6065 2.01232 19.745C2.88513 19.8393 3.65134 19.9491 3.71507 19.9891C3.84727 20.0718 3.9561 20.282 3.9561 20.4545C3.9561 20.5191 3.11489 22.5048 2.08674 24.8674C1.05859 27.2299 0.217379 29.2075 0.217379 29.262C0.217379 29.4133 0.380247 29.6962 0.506253 29.7639C0.568059 29.7971 0.684193 29.8242 0.764342 29.8242C0.844432 29.8242 2.80539 28.9939 5.12194 27.9791C7.43854 26.9643 9.39939 26.1175 9.47936 26.0974C9.66174 26.0515 9.95798 26.1706 10.039 26.3224C10.0728 26.3857 10.1769 27.1486 10.2705 28.0177C10.3641 28.8868 10.4671 29.6474 10.4994 29.708C10.5902 29.8781 10.7984 30 10.9983 30C11.1407 30 11.856 29.5385 14.3222 27.8554C17.6791 25.5645 17.6946 25.5559 17.987 25.8192C18.0532 25.8788 18.2931 26.188 18.5201 26.5064C19.0149 27.2004 19.1985 27.3152 19.5435 27.1461L19.758 27.0409L21.7734 22.0087C23.6029 17.4407 23.8043 16.9686 23.956 16.8908C24.2392 16.7458 24.4789 16.8338 24.7207 17.1712C24.8362 17.3324 25.0023 17.4917 25.0899 17.5251C25.3003 17.6055 25.5599 17.5271 25.6943 17.3427C25.758 17.2552 26.1504 15.7907 26.6727 13.6911C27.6173 9.89373 27.6146 9.90146 27.9978 9.90146C28.1314 9.90146 28.2493 9.96152 28.4111 10.112C28.7099 10.3899 28.8687 10.4484 29.1085 10.369C29.3966 10.2737 29.4726 10.0989 29.5839 9.27524C29.7284 8.20609 29.7256 4.90155 29.5795 4.12972C29.3544 2.94028 29.0051 2.14905 28.4509 1.57328C27.9228 1.02453 27.1358 0.632168 25.9299 0.316451C24.7324 0.00284299 23.1347 -0.0883915 21.9837 0.0910891ZM23.4091 2.52541C21.0923 2.79244 18.2976 3.99595 15.2581 6.03551C13.1343 7.46069 10.8815 9.31275 8.33981 11.7233L7.21959 12.7857L6.95923 12.7126C6.81102 12.671 6.55299 12.6527 6.36021 12.6703C5.25133 12.7712 4.57772 13.9608 5.06264 14.9621C5.14291 15.128 6.71586 16.7432 10.0447 20.0782L14.9094 24.952L15.2555 25.0514C16.1046 25.2952 16.9584 24.8735 17.2563 24.0633C17.3462 23.8184 17.351 23.3036 17.2659 23.0188L17.1981 22.7918L17.8954 22.0744C25.0461 14.7174 28.5222 7.90421 27.2256 3.78694C27.0241 3.1473 26.8142 2.93577 26.1831 2.73624C25.3841 2.48364 24.4123 2.4098 23.4091 2.52541ZM23.2297 3.65896C20.1258 4.16746 16.304 6.26052 12.1802 9.71032C10.976 10.7177 9.87958 11.7061 8.84804 12.7141L8.03855 13.5051L16.5123 21.9977L17.2329 21.2379C18.3438 20.0666 18.8694 19.4896 19.5798 18.6616C23.4876 14.107 25.7103 10.1871 26.2777 6.849C26.4332 5.93443 26.4137 4.67842 26.2358 4.15902C26.1294 3.84805 26.1143 3.83287 25.8043 3.72693C25.3743 3.57997 23.9427 3.54218 23.2297 3.65896ZM22.8358 4.86792C21.0898 5.23561 18.8234 6.28947 16.6327 7.75227C15.6223 8.42689 14.6558 9.1359 14.5606 9.2722C14.4212 9.47189 14.4484 9.7453 14.6252 9.92279C14.8436 10.1418 15.0897 10.1272 15.4434 9.87433C17.4594 8.43327 18.6106 7.71248 19.9333 7.06311C21.2846 6.39963 22.3709 6.01975 23.4522 5.83247C23.8661 5.76075 23.9893 5.71487 24.0955 5.5927C24.2732 5.38849 24.2683 5.09979 24.0837 4.90003C23.9062 4.70783 23.6296 4.70074 22.8358 4.86792ZM6.14647 13.8517C5.96601 14.0327 5.91116 14.2551 5.99621 14.4611C6.03313 14.5506 8.17239 16.7386 10.7501 19.3235L15.4368 24.0232H15.681C16.0334 24.0232 16.2504 23.8239 16.2504 23.5004V23.2581L11.4899 18.4842C6.8598 13.841 6.7234 13.7102 6.50848 13.7102C6.35274 13.7102 6.24583 13.752 6.14647 13.8517Z" fill="url(#paint0_linear_2424_7071)"/>
<defs>
<linearGradient id="paint0_linear_2424_7071" x1="29.6907" y1="5" x2="2.34061" y2="12.9188" gradientUnits="userSpaceOnUse">
<stop stop-color="#1095ED"/>
<stop offset="1" stop-color="#E2435F"/>
</linearGradient>
</defs>
</svg>
