<svg width="31" height="30" viewBox="0 0 31 30" fill="none" xmlns="http://www.w3.org/2000/svg">
<path fill-rule="evenodd" clip-rule="evenodd" d="M9.50406 1.93359H6.32605V3.86438L4.39035 3.89648L4.35869 5.85938H2.45466V9.08203H0.547852V20.918H2.45466V24.1406H4.35869L4.39035 26.1035L6.32605 26.1356V28.0664H9.50406V30H21.176V28.0664H24.354V26.1356L26.2897 26.1035L26.3214 24.1406H28.2254V20.9208L30.1611 20.8887L30.1907 9.05273L28.2254 9.08736V5.85938H26.3214L26.2897 3.89648L24.354 3.86438V1.93359H21.176V0H9.50406V1.93359ZM7.01943 10.4297H10.833V8.49609H7.01943V10.4297ZM19.847 10.4297H23.6606V8.49609H19.847V10.4297ZM0.575645 15C0.575645 18.271 0.582636 19.6091 0.591188 17.9736C0.599682 16.3381 0.599682 13.6618 0.591188 12.0264C0.582636 10.3908 0.575645 11.729 0.575645 15ZM5.05485 14.2969H6.96165V10.4297H5.05485V14.2969ZM10.8716 10.4688C10.8504 10.4902 10.833 11.3603 10.833 12.4024V14.2969H12.7399V10.4297H11.825C11.3218 10.4297 10.8927 10.4473 10.8716 10.4688ZM17.9402 14.2969H19.8486L19.8181 10.459L17.9402 10.4268V14.2969ZM23.7184 14.2969H25.6252V10.4297H23.7184V14.2969ZM8.29064 22.1484H10.1974V24.0792L12.1331 24.1113L12.1648 26.0742H18.5153L18.5469 24.1113L20.4826 24.0792V22.1484H22.3894V16.3477H8.29064V22.1484Z" fill="url(#paint0_linear_2424_7084)"/>
<defs>
<linearGradient id="paint0_linear_2424_7084" x1="30.1907" y1="5" x2="2.84061" y2="12.9188" gradientUnits="userSpaceOnUse">
<stop stop-color="#1095ED"/>
<stop offset="1" stop-color="#E2435F"/>
</linearGradient>
</defs>
</svg>
