<svg width="31" height="30" viewBox="0 0 31 30" fill="none" xmlns="http://www.w3.org/2000/svg">
<path fill-rule="evenodd" clip-rule="evenodd" d="M14.5036 0.0180934C14.4039 0.0321392 14.0643 0.072933 13.7488 0.10878C12.0491 0.301757 10.0145 0.978579 8.43383 1.87684C4.34101 4.20269 1.59814 8.22839 0.905899 12.9256C0.761836 13.9034 0.761836 16.1075 0.905899 17.0853C1.38995 20.3697 2.8295 23.2642 5.1423 25.6035C7.46011 27.9478 10.2606 29.3715 13.5677 29.8868C14.5363 30.0377 16.7048 30.0377 17.6734 29.8868C23.3122 29.0082 27.8494 25.2012 29.6814 19.8113C30.234 18.1857 30.4407 16.8772 30.4407 15.0055C30.4407 13.1304 30.2342 11.8258 29.6784 10.1906C27.8581 4.83548 23.2593 0.964228 17.7299 0.132292C17.1332 0.0424598 14.8926 -0.0368071 14.5036 0.0180934ZM14.2351 3.10456C13.2406 3.22108 12.4805 3.52636 12.0739 3.97252C11.8741 4.19176 11.8208 4.30547 11.7642 4.63402C11.5022 6.15609 12.0465 7.85978 13.3584 9.62399C13.5987 9.94716 13.8732 10.3031 13.9683 10.4149L14.1413 10.6181L14.5639 10.2975C16.3761 8.92298 17.7345 7.29905 18.7025 5.3498C18.9751 4.80092 19.4848 3.62816 19.4848 3.54981C19.4848 3.47402 17.5574 3.18694 16.4689 3.10053C15.5453 3.02718 14.8852 3.0284 14.2351 3.10456ZM7.2294 6.67957C5.19235 9.2166 4.25986 11.0424 4.34204 12.333C4.37694 12.8816 4.45845 13.0429 4.87585 13.3898C6.13552 14.4366 8.11304 14.7972 10.5173 14.4185L11.1625 14.3168L11.1244 13.9436C10.8472 11.228 9.95766 8.93446 8.33783 6.75951C8.09746 6.43682 7.86494 6.14345 7.82099 6.10754C7.75916 6.05691 7.62578 6.18595 7.2294 6.67957ZM22.6405 6.35621C21.3348 6.85807 20.2313 8.02375 19.3953 9.78411C19.107 10.3912 18.7602 11.2723 18.7602 11.3979C18.7602 11.5168 20.3788 12.1419 21.3193 12.3862C22.3907 12.6646 23.0527 12.7523 24.3453 12.7872C25.3228 12.8137 25.799 12.7985 26.4245 12.721C27.5006 12.5876 27.5282 12.5796 27.4795 12.4182C27.3376 11.9482 26.6541 10.3092 26.2792 9.53983C25.4886 7.91786 24.6953 6.88861 23.9135 6.47059C23.4096 6.2011 23.1133 6.17447 22.6405 6.35621ZM15.5113 11.3429C15.0901 11.6026 15.0343 12.1815 15.3952 12.5464C16.0391 13.1978 17.0628 12.3897 16.589 11.6039C16.3622 11.2275 15.8856 11.1121 15.5113 11.3429ZM12.6318 13.2591C12.0747 13.5078 11.9829 14.2154 12.4536 14.6335C12.9541 15.0779 13.7491 14.7107 13.7486 14.0354C13.7481 13.3906 13.1964 13.007 12.6318 13.2591ZM15.2861 13.4071C14.9772 13.5531 14.5763 14.0103 14.484 14.3219C14.2535 15.0999 14.6116 15.9131 15.316 16.2116C15.4538 16.27 15.6707 16.2925 15.9558 16.278C16.5044 16.2499 16.8892 16.0295 17.1586 15.5888C17.3229 15.32 17.3413 15.2396 17.3413 14.7917C17.3413 14.3439 17.3229 14.2634 17.1586 13.9947C16.8878 13.5517 16.5035 13.3324 15.9585 13.3097C15.6367 13.2962 15.4693 13.3205 15.2861 13.4071ZM18.4657 13.5221C18.1883 13.6603 18.0362 13.9317 18.0359 14.2888C18.0358 14.5332 18.0677 14.6151 18.2357 14.8005C18.4022 14.9843 18.4864 15.0261 18.7389 15.0507C19.1564 15.0913 19.399 14.9569 19.556 14.598C19.7548 14.1435 19.5836 13.6874 19.1445 13.5019C18.8853 13.3923 18.716 13.3974 18.4657 13.5221ZM21.9905 15.5951C21.8909 15.6071 21.4892 15.6624 21.098 15.7181L20.3867 15.8193L20.4232 16.191C20.6541 18.5454 21.4029 20.6828 22.6673 22.5972C23.2342 23.4555 23.7708 24.1309 23.8328 24.0642C24.1357 23.7384 25.351 22.1207 25.7753 21.4787C26.7957 19.9345 27.2506 18.7757 27.2006 17.8483C27.1672 17.2278 27.0734 17.0474 26.5962 16.6845C25.8422 16.1112 24.923 15.7543 23.8622 15.6228C23.354 15.5598 22.4022 15.5457 21.9905 15.5951ZM13.4926 16.8226C13.0351 17.1095 13.041 17.9232 13.5025 18.199C13.7774 18.3632 14.2424 18.3377 14.4676 18.146C14.7161 17.9346 14.8175 17.5872 14.7233 17.2695C14.6161 16.9075 14.3538 16.715 13.9706 16.717C13.7842 16.7179 13.5914 16.7605 13.4926 16.8226ZM17.0635 17.0378C16.7784 17.2313 16.6647 17.5934 16.7771 17.9502C16.8859 18.2955 17.1655 18.4864 17.5625 18.4864C17.8129 18.4864 17.8897 18.4555 18.0819 18.2773C18.2955 18.0793 18.3074 18.0484 18.3074 17.6925C18.3074 17.3365 18.2955 17.3057 18.0819 17.1076C17.8897 16.9295 17.8129 16.8986 17.5625 16.8986C17.3569 16.8986 17.2071 16.9404 17.0635 17.0378ZM5.6883 17.3645C5.24428 17.4016 4.07293 17.5655 4.04419 17.5945C3.99698 17.6423 4.82489 19.6815 5.24397 20.5494C6.26594 22.6661 7.41525 23.8903 8.37514 23.8848C8.99595 23.8811 9.89813 23.353 10.6744 22.5389C11.376 21.8029 11.9718 20.8445 12.4719 19.6467C12.858 18.7222 12.8649 18.7842 12.3491 18.5506C11.2374 18.0471 9.88762 17.6535 8.67643 17.4796C7.99258 17.3815 6.27693 17.3154 5.6883 17.3645ZM16.9352 19.8783C15.1173 21.2558 13.7822 22.8776 12.7858 24.9185C12.2647 25.9858 12.0315 26.603 12.1355 26.6396C12.176 26.6539 12.6711 26.7343 13.2356 26.8182C15.9465 27.2212 17.6924 27.1663 18.796 26.6434C19.3162 26.3969 19.636 26.0883 19.7337 25.7387C19.7736 25.5957 19.8053 25.1489 19.804 24.7459C19.8023 24.1569 19.771 23.8945 19.6447 23.4092C19.3653 22.3358 18.6782 21.0692 17.7776 19.9673C17.5785 19.7237 17.4125 19.5246 17.4087 19.5247C17.4049 19.5247 17.1918 19.6839 16.9352 19.8783Z" fill="url(#paint0_linear_2424_6205)"/>
<defs>
<linearGradient id="paint0_linear_2424_6205" x1="30.4407" y1="5" x2="3.09061" y2="12.9188" gradientUnits="userSpaceOnUse">
<stop stop-color="#1095ED"/>
<stop offset="1" stop-color="#E2435F"/>
</linearGradient>
</defs>
</svg>
