<svg width="30" height="30" viewBox="0 0 30 30" fill="none" xmlns="http://www.w3.org/2000/svg">
<path fill-rule="evenodd" clip-rule="evenodd" d="M10.4023 0.50484C9.046 1.46894 7.94118 2.3878 7.0194 3.3182C6.11779 4.22827 5.26045 5.33973 5.37894 5.4449C5.4084 5.47098 6.52588 5.8025 7.86228 6.18154C9.19869 6.56058 10.3991 6.92345 10.5298 6.98778C10.9005 7.17036 11.3712 7.67936 11.5292 8.06848C11.7372 8.58082 11.7259 9.28289 11.5022 9.75579C11.3303 10.1194 10.9684 10.5297 10.6482 10.7242C10.503 10.8124 9.54066 11.1707 8.05397 11.6901C7.9974 11.7099 8.02433 11.7868 8.15098 11.9671C8.42744 12.3608 8.68489 12.8964 8.79414 13.3054C8.94509 13.8703 8.89109 14.8703 8.67421 15.5272C8.31171 16.6253 7.63352 17.6148 6.70503 18.4003C6.18552 18.8398 4.85962 19.7194 3.40562 20.589C2.01528 21.4205 1.32599 21.9644 0.867864 22.5914C0.127636 23.6045 0.108558 24.7906 0.809488 26.2169C1.28729 27.1891 2.35474 28.6437 3.27309 29.5739L3.69348 29.9998H10.9405C18.8385 29.9998 18.3754 30.0194 18.6546 29.6728C18.8206 29.4667 18.8722 29.1589 18.7871 28.8817C18.7335 28.7071 18.6187 28.577 18.2957 28.3254C16.9552 27.2808 16.1052 26.2133 15.7562 25.1365C15.3934 24.0165 15.5369 23.1103 16.2412 22.0757C16.4083 21.8303 17.0678 21.1142 17.8216 20.3598C19.2502 18.9301 19.7439 18.3359 20.0992 17.6181C20.9359 15.9281 20.5666 14.0285 19.0337 12.1371C18.526 11.5107 17.9075 10.9408 16.4417 9.74894C14.9364 8.52504 14.368 7.95024 14.0586 7.33899C13.859 6.94489 13.8294 6.83064 13.8113 6.38515C13.7852 5.74385 13.944 5.26338 14.4135 4.56278C14.9843 3.71113 15.8306 2.88027 17.4127 1.61841C18.4435 0.796225 18.5424 0.665796 18.3953 0.32197C18.3493 0.21451 18.2572 0.0981439 18.1905 0.0632808C18.1078 0.0200389 16.968 0 14.591 0H11.1125L10.4023 0.50484ZM21.6758 0.761421C21.5682 0.825463 21.4266 0.963743 21.361 1.0688C21.2448 1.25489 21.2417 1.37267 21.2416 5.68953L21.2413 10.1193L21.3763 10.313C21.596 10.6282 21.8029 10.7451 22.1413 10.7451C22.4796 10.7451 22.6865 10.6282 22.9062 10.313C23.0393 10.1221 23.0412 10.0928 23.0412 8.23272V6.34619L26.236 5.27539C27.9931 4.68647 29.5054 4.15304 29.5966 4.08987C29.8183 3.93654 29.9407 3.6905 29.9407 3.39841C29.9407 2.95803 29.6861 2.65311 29.1908 2.50018C28.1371 2.17487 22.2904 0.644585 22.1017 0.644761C21.975 0.644878 21.7833 0.697378 21.6758 0.761421ZM1.45582 6.24974C1.34753 6.30189 1.19904 6.42652 1.12585 6.52671L0.992775 6.70894L0.960797 16.5031L1.09675 16.6982C1.40165 17.1358 1.80638 17.2634 2.23385 17.0569C2.75203 16.8064 2.73031 16.925 2.75029 14.2382L2.76799 11.8652L5.92352 10.8105C7.65908 10.2304 9.15651 9.70991 9.25118 9.65378C9.78401 9.33796 9.79763 8.50459 9.27536 8.17043C9.08854 8.0509 2.08428 6.15359 1.83271 6.15441C1.73372 6.1547 1.56411 6.19759 1.45582 6.24974ZM22.8282 21.9931C22.2078 22.2679 22.0858 23.0738 22.6019 23.4892C22.9132 23.7399 23.2137 23.7756 23.5668 23.6039C24.0391 23.3743 24.22 22.8501 23.9818 22.4019C23.7743 22.0118 23.2254 21.8172 22.8282 21.9931ZM26.0401 23.9207C25.3525 24.2611 25.3789 25.1951 26.0846 25.5001C26.9517 25.8746 27.7465 24.8425 27.1363 24.1342C26.9652 23.9356 26.6718 23.7889 26.4456 23.7889C26.369 23.7889 26.1865 23.8482 26.0401 23.9207Z" fill="url(#paint0_linear_2424_6958)"/>
<defs>
<linearGradient id="paint0_linear_2424_6958" x1="29.9407" y1="5" x2="2.59061" y2="12.9188" gradientUnits="userSpaceOnUse">
<stop stop-color="#1095ED"/>
<stop offset="1" stop-color="#E2435F"/>
</linearGradient>
</defs>
</svg>
