<svg width="35" height="30" viewBox="0 0 35 30" fill="none" xmlns="http://www.w3.org/2000/svg">
<path fill-rule="evenodd" clip-rule="evenodd" d="M26.5043 0.0852368C24.5598 0.558895 23.179 2.38854 23.179 4.49139C23.179 6.41119 24.3536 8.16658 26.0347 8.75905C26.84 9.04284 27.877 9.04395 28.6728 8.76186C30.021 8.28398 31.0907 7.06205 31.4472 5.59252C31.5939 4.98829 31.5939 3.99449 31.4472 3.39026C31.1982 2.36404 30.5088 1.32449 29.6924 0.744242C28.8174 0.122321 27.4837 -0.153332 26.5043 0.0852368ZM14.2696 4.94121C12.5569 6.79521 11.5231 7.97117 11.3902 8.21662C11.2127 8.54446 11.1831 8.67407 11.1849 9.11768C11.1872 9.70385 11.333 10.0813 11.7151 10.4905C12.2209 11.0321 13.092 11.1975 13.7093 10.8692C13.8786 10.7792 14.43 10.327 14.9345 9.86447C15.4391 9.40184 15.929 9.00753 16.0233 8.98821C16.456 8.89969 16.6747 9.08844 17.5342 10.2921L17.9404 10.8609L11.3438 17.9477C6.44627 23.2091 4.70792 25.1212 4.59489 25.3713C4.38224 25.8414 4.38715 26.53 4.60671 27.0348C5.02129 27.9881 6.18544 28.4416 7.02849 27.9783C7.14615 27.9136 9.42524 26.2167 12.0932 24.2073C14.7611 22.1979 16.9594 20.5539 16.9782 20.5539C16.9971 20.5539 17.5407 21.1981 18.1863 21.9853L19.3601 23.4169L18.3561 25.1127C17.1266 27.1897 17.0967 27.2561 17.0957 27.9189C17.0946 28.5707 17.2904 29.0516 17.7344 29.4881C18.3242 30.0679 19.1272 30.1629 19.8069 29.7335C19.9687 29.6312 20.9544 28.4298 22.4841 26.4701C24.4058 24.0083 24.9052 23.3256 24.9052 23.1603C24.9052 22.9553 24.6683 22.5012 22.9228 19.3596L22.1565 17.9803L23.8383 16.1839L26.0347 17.4806C27.2427 18.1939 28.2994 18.7762 28.3828 18.7748C28.4663 18.7733 28.6005 18.7317 28.6812 18.6822C28.7618 18.6328 29.9564 17.4772 31.3359 16.1142C34.1259 13.3577 34.1681 13.3029 34.1665 12.4486C34.1638 11.0244 32.7603 10.0584 31.5763 10.6658C31.3862 10.7634 30.7485 11.2952 30.1591 11.8478C29.5698 12.4003 28.9892 12.8881 28.8689 12.9317C28.7005 12.9928 28.597 12.9866 28.4195 12.9048C28.2927 12.8464 26.1824 10.7906 23.73 8.33654C16.8252 1.42693 17.4722 2.04871 17.1882 2.04871C16.9553 2.04871 16.7934 2.20911 14.2696 4.94121ZM1.23093 12.3915C0.838409 12.4983 0.571289 12.8811 0.571289 13.3369C0.571289 13.7352 0.746535 14.0316 1.07705 14.1923C1.34223 14.3212 1.55591 14.333 3.6476 14.3344C6.15164 14.3361 6.23466 14.3229 6.54043 13.8763C6.72521 13.6064 6.72521 13.0673 6.54043 12.7974C6.23377 12.3495 6.15344 12.337 3.6476 12.3463C2.39288 12.351 1.30539 12.3713 1.23093 12.3915ZM10.5606 12.4421C9.84487 12.7827 9.78251 13.7734 10.4516 14.1759C10.6889 14.3188 10.8216 14.3361 11.6772 14.3361H12.6366L13.5169 13.3913C14.0012 12.8717 14.3974 12.422 14.3974 12.3921C14.3974 12.3621 13.5808 12.3389 12.5827 12.3405C11.2251 12.3426 10.7158 12.3682 10.5606 12.4421ZM2.19032 17.1405C1.90495 17.3268 1.7201 17.7522 1.77879 18.0873C1.80368 18.2292 1.9286 18.4674 2.05642 18.6168L2.28884 18.8884L8.27934 18.9291L10.0747 17.0009L6.23902 17.0012C2.60808 17.0014 2.39191 17.0089 2.19032 17.1405ZM2.58036 21.7254C2.32672 21.8711 2.09216 22.2601 2.09216 22.5352C2.09216 22.837 2.28531 23.2115 2.52008 23.3647C2.70479 23.4854 2.86905 23.5142 3.37204 23.5144L3.99525 23.5147L5.78864 21.5901H4.30226C2.99473 21.5901 2.78754 21.6064 2.58036 21.7254Z" fill="url(#paint0_linear_2424_6901)"/>
<defs>
<linearGradient id="paint0_linear_2424_6901" x1="34.1665" y1="5" x2="3.83702" y2="14.9523" gradientUnits="userSpaceOnUse">
<stop stop-color="#1095ED"/>
<stop offset="1" stop-color="#E2435F"/>
</linearGradient>
</defs>
</svg>
