<svg width="30" height="27" viewBox="0 0 30 27" fill="none" xmlns="http://www.w3.org/2000/svg">
<path fill-rule="evenodd" clip-rule="evenodd" d="M0.0478516 27V0H29.6907V27L15.8574 27L0.0478516 27ZM8.01394 7.83482C7.76415 6.28308 8.79078 4.71191 10.2747 4.37483C10.811 4.25305 10.9904 4.25257 11.5282 4.37173C12.714 4.63449 13.6147 5.63012 13.8199 6.90497C14.1416 8.90387 12.384 10.7417 10.4723 10.4053C9.20176 10.1817 8.22777 9.16326 8.01394 7.83482ZM22.4104 8.40306L20.1394 6.02561L21.489 4.61452L26.1002 9.43595L21.491 14.2568L20.1387 12.8476L22.4104 10.4694H21.3042C19.9767 10.4694 19.4965 10.5633 18.657 10.9867C17.5878 11.526 16.8687 12.2777 16.3516 13.3967C16.0165 14.1218 15.8803 14.7533 15.8273 15.8265C15.7853 16.6772 15.6758 17.3133 15.4554 17.9866C14.7867 20.0292 13.1427 21.7479 11.1888 22.4473C10.1992 22.8014 10.0712 22.8135 6.94805 22.8474L4.00023 22.8794V20.801H6.77039C9.88322 20.801 10.0826 20.7785 11.0157 20.322C12.0579 19.8123 12.8626 18.9951 13.3587 17.9426C13.6712 17.2796 13.881 16.4535 13.8817 15.8825C13.8856 12.8908 15.4159 10.3157 17.9174 9.09177C18.9243 8.59909 19.9428 8.40464 21.5217 8.40361L22.4104 8.40306ZM10.9169 8.40258C9.91523 8.40258 9.54891 7.02041 10.4058 6.47414C10.536 6.39108 10.7371 6.33722 10.9169 6.33722C11.4789 6.33722 11.9045 6.78223 11.9045 7.3699C11.9045 7.95756 11.4789 8.40258 10.9169 8.40258ZM7.58946 15.6352L6.30651 14.2937L7.65381 12.8801L8.94071 14.2206L10.2276 12.8801L11.5749 14.2937L10.292 15.6352L11.5749 16.9767L10.2276 18.3903L8.94071 17.0498L7.65381 18.3903L6.30651 16.9767L7.58946 15.6352ZM21.4228 19.7679L20.1398 18.4263L21.4871 17.0128L22.774 18.3532L24.0609 17.0128L25.4082 18.4263L24.1253 19.7679L25.4082 21.1094L24.0609 22.523L22.774 21.1825L21.4871 22.523L20.1398 21.1094L21.4228 19.7679Z" fill="url(#paint0_linear_2424_1693)"/>
<defs>
<linearGradient id="paint0_linear_2424_1693" x1="29.6907" y1="4.5" x2="2.82798" y2="13.1419" gradientUnits="userSpaceOnUse">
<stop stop-color="#1095ED"/>
<stop offset="1" stop-color="#E2435F"/>
</linearGradient>
</defs>
</svg>
