<svg width="31" height="30" viewBox="0 0 31 30" fill="none" xmlns="http://www.w3.org/2000/svg">
<path fill-rule="evenodd" clip-rule="evenodd" d="M27.0787 0.0914258C26.5163 0.294435 26.2019 0.546349 24.9642 1.78598L23.7182 3.03388L27.4605 6.82063L28.7232 5.53057C29.8675 4.36153 30.0073 4.19676 30.2134 3.77444C30.4383 3.31324 30.4407 3.30128 30.4407 2.62792C30.4407 1.96084 30.4365 1.9388 30.2252 1.50633C29.9457 0.934013 29.5366 0.519727 28.9726 0.237672C28.5717 0.0371845 28.4945 0.0194755 27.954 0.00364286C27.506 -0.00943369 27.3012 0.01109 27.0787 0.0914258ZM19.3068 4.29545C19.0762 4.39695 18.842 4.70815 18.7924 4.97865C18.7512 5.20324 18.8627 5.55549 19.0365 5.7497C19.111 5.83309 19.1163 5.87132 19.061 5.92779C19.0222 5.96731 16.5097 7.99195 13.4775 10.4269C10.4453 12.8619 7.91017 14.9287 7.84381 15.0197C7.72524 15.1825 7.72292 15.2443 7.70727 18.714L7.69139 22.2427L7.82318 22.5053C7.90147 22.6613 8.03737 22.816 8.15786 22.8864C8.35542 23.0019 8.45284 23.0051 11.9061 23.0051C15.4024 23.0051 15.4537 23.0034 15.615 22.8834C15.7051 22.8165 17.7476 20.2516 20.1541 17.1836C22.5606 14.1155 24.5615 11.573 24.6006 11.5335C24.6567 11.4769 24.6938 11.482 24.7766 11.5578C24.9729 11.7376 25.3122 11.8445 25.5546 11.8031C25.8643 11.7501 26.2145 11.4109 26.2704 11.1097C26.3441 10.7118 26.2325 10.5046 25.6033 9.87093L25.022 9.28553L26.267 8.02185L22.531 4.24162L21.2821 5.50142L20.7326 4.93808C20.0284 4.21617 19.7607 4.09555 19.3068 4.29545ZM9.14305 4.86097C7.20361 5.05447 5.23657 5.54493 3.26085 6.32753C1.98727 6.83201 1.08912 7.30176 0.928245 7.54764L0.797852 7.7469V12.9248C0.797852 18.5442 0.808225 18.7719 1.12633 20.1317C1.57285 22.0403 2.46591 23.8953 3.69538 25.4679C4.48747 26.481 5.88872 27.7273 7.02163 28.4263C8.40665 29.2809 10.4316 30.064 11.0796 29.9959C11.7789 29.9222 13.5658 29.1913 14.7355 28.5004C15.8698 27.8304 17.3506 26.5276 18.1824 25.4679C19.2799 24.0695 20.105 22.4601 20.5869 20.7776C20.7553 20.1894 20.9883 19.0505 20.9483 19.0101C20.9336 18.9952 20.0346 20.1136 18.9504 21.4953C17.8663 22.8771 16.8917 24.0752 16.7846 24.1577C16.4889 24.3857 16.0451 24.5956 15.7034 24.669C15.4951 24.7137 14.2543 24.7349 11.8472 24.7349C7.98127 24.7349 7.90512 24.7292 7.34652 24.3985C6.97214 24.1768 6.52075 23.726 6.34382 23.3971C6.01737 22.7903 6.0136 22.738 6.0136 18.8322C6.0136 16.3948 6.03458 15.1413 6.0788 14.9304C6.16503 14.5196 6.41197 14.0324 6.68817 13.7282C6.81121 13.5928 9.07641 11.7489 11.722 9.6308C14.3675 7.51275 16.5664 5.74736 16.6084 5.70772C16.7379 5.58563 14.9413 5.15205 13.4316 4.94107C12.6346 4.82965 9.95758 4.77963 9.14305 4.86097ZM18.2329 11.1746C15.6281 13.8165 15.1779 14.2978 15.1477 14.4735C15.04 15.0984 15.6055 15.6364 16.1988 15.4734C16.3777 15.4242 16.9539 14.8693 19.458 12.3344L22.4999 9.25504L21.9221 8.66823C21.6043 8.34543 21.3304 8.08137 21.3135 8.08137C21.2966 8.08137 19.9103 9.47335 18.2329 11.1746Z" fill="url(#paint0_linear_2424_13450)"/>
<defs>
<linearGradient id="paint0_linear_2424_13450" x1="30.4407" y1="5" x2="3.09061" y2="12.9188" gradientUnits="userSpaceOnUse">
<stop stop-color="#1095ED"/>
<stop offset="1" stop-color="#E2435F"/>
</linearGradient>
</defs>
</svg>
