<svg width="48" height="30" viewBox="0 0 48 30" fill="none" xmlns="http://www.w3.org/2000/svg">
<path fill-rule="evenodd" clip-rule="evenodd" d="M0 2C0 0.89543 0.895431 0 2 0H46C47.1046 0 48 0.895431 48 2V28C48 29.1046 47.1046 30 46 30H2C0.895432 30 0 29.1046 0 28V2ZM10.6055 7.00049C9.38095 7 8.18042 7.34265 7.13818 7.99012C6.09594 8.63759 5.25309 9.56434 4.7039 10.6667C4.24106 11.5935 4 12.6165 4 13.6539C4 14.6914 4.24106 15.7144 4.7039 16.6412C5.25309 17.7435 6.09594 18.6703 7.13818 19.3178C8.18042 19.9652 9.38095 20.3079 10.6055 20.3074C12.3888 20.3074 13.8888 19.7165 14.9838 18.7009C16.2304 17.5426 16.9504 15.8304 16.9504 13.8059C16.9479 13.3524 16.9088 12.8999 16.8337 12.4528H10.6072V15.0145H14.1738C14.1007 15.4236 13.9464 15.8136 13.7202 16.1611C13.494 16.5087 13.2004 16.8067 12.8571 17.0373C12.2638 17.4419 11.5005 17.6735 10.6072 17.6735C8.88384 17.6735 7.4222 16.5035 6.89887 14.9272C6.62309 14.1011 6.62309 13.2068 6.89887 12.3807C7.4222 10.8027 8.88384 9.63434 10.6072 9.63434C11.5489 9.61846 12.4589 9.97668 13.1404 10.6315L15.0271 8.73457C13.8324 7.60167 12.2462 6.97999 10.6055 7.00049ZM21.4403 19.5067V7.92377L25.3586 7.92209C25.8262 7.91285 26.2911 7.99678 26.7264 8.16906C27.1617 8.34133 27.5589 8.59855 27.8952 8.92594C28.2346 9.2337 28.5046 9.61104 28.6871 10.0326C28.8696 10.4542 28.9605 10.9102 28.9536 11.3701C28.9635 11.8324 28.8741 12.2914 28.6914 12.7156C28.5087 13.1398 28.2371 13.5191 27.8952 13.8277C27.2086 14.4857 26.363 14.8148 25.3586 14.8148H22.917V19.5067H21.4403ZM25.4853 9.35065C25.7429 9.35555 25.997 9.41228 26.2325 9.5175C26.4681 9.62273 26.6804 9.77432 26.8569 9.96336C27.0447 10.1473 27.194 10.3673 27.2959 10.6104C27.3978 10.8535 27.4503 11.1146 27.4503 11.3785C27.4503 11.6423 27.3978 11.9035 27.2959 12.1466C27.194 12.3896 27.0447 12.6097 26.8569 12.7936C26.6682 12.9906 26.4407 13.1456 26.189 13.2488C25.9373 13.3521 25.6669 13.4011 25.3953 13.3929H22.917V9.35065H25.4853ZM32.3585 11.3231C30.9563 11.3231 29.8969 11.8407 29.1802 12.8759L30.4819 13.7001C30.9619 12.9995 31.6146 12.6493 32.4402 12.6493C32.9667 12.6419 33.4764 12.8356 33.8668 13.1915C34.0601 13.351 34.2152 13.5523 34.3208 13.7804C34.4264 14.0085 34.4797 14.2576 34.4768 14.5092V14.8483C33.9101 14.5238 33.1879 14.3621 32.3102 14.3632C31.2813 14.3632 30.4596 14.606 29.8452 15.0917C29.2285 15.5752 28.9208 16.2271 28.9219 17.0474C28.9157 17.416 28.9909 17.7813 29.1423 18.117C29.2936 18.4526 29.5172 18.7501 29.7969 18.988C30.3802 19.5061 31.1052 19.7652 31.9718 19.7652C32.9885 19.7652 33.8024 19.3119 34.4135 18.4055H34.4768V19.505H35.8901V14.6217C35.8901 13.5977 35.5746 12.7919 34.9435 12.2044C34.3101 11.6169 33.4485 11.3231 32.3585 11.3231ZM34.4801 16.1107C34.019 15.7414 33.3768 15.5567 32.5535 15.5567C31.9535 15.5567 31.4519 15.7022 31.0519 15.9932C30.6485 16.2886 30.4469 16.6507 30.4469 17.0793C30.446 17.2684 30.4898 17.4551 30.5747 17.6238C30.6596 17.7925 30.7832 17.9385 30.9352 18.0496C31.2622 18.3095 31.6687 18.4472 32.0852 18.439C32.394 18.4397 32.6999 18.3786 32.9852 18.2593C33.2704 18.14 33.5293 17.9649 33.7468 17.7441C34.2357 17.2796 34.4801 16.7352 34.4801 16.1107ZM39.3734 19.0047L36.1301 11.5816H37.7351L40.0784 17.2723H40.1117L42.3917 11.5799H44L39.0684 23H37.5434L39.3734 19.0047Z" fill="#A5AECC"/>
</svg>
