<svg width="14" height="19" viewBox="0 0 14 19" fill="none" xmlns="http://www.w3.org/2000/svg">
<path d="M5.38246 12.4618L5.37459 12.4428C5.25628 12.4094 5.13897 12.3723 5.02281 12.3316L5.01406 12.3279C3.80523 11.9003 2.75597 11.0927 2.01317 10.0179C1.27037 8.94323 0.871205 7.65528 0.871554 6.33439C0.871164 4.71329 1.47211 3.15376 2.5506 1.97702C3.62909 0.800286 5.10301 0.0959553 6.66876 0.00910281C8.23451 -0.0777497 9.77286 0.459491 10.967 1.51017C12.161 2.56084 12.9199 4.04494 13.0873 5.65678C13.1258 6.02951 12.8283 6.33439 12.466 6.33439C12.1038 6.33439 11.8141 6.0286 11.766 5.65768C11.6496 4.78219 11.3098 3.95453 10.7816 3.25976C10.2533 2.565 9.55565 2.02818 8.76027 1.7045C7.9649 1.38081 7.1005 1.28193 6.25591 1.41801C5.41133 1.55409 4.61703 1.92022 3.95464 2.47878C3.29225 3.03734 2.78567 3.76818 2.48696 4.59619C2.18825 5.4242 2.10819 6.3195 2.255 7.19009C2.40181 8.06069 2.7702 8.87516 3.32231 9.54981C3.87442 10.2245 4.59033 10.7349 5.39646 11.0288C5.55885 10.6493 5.84248 10.3391 6.19981 10.1501C6.55714 9.96105 6.96646 9.90477 7.35915 9.99065C7.75184 10.0765 8.10404 10.2994 8.35672 10.6218C8.6094 10.9442 8.74721 11.3466 8.74705 11.7616C8.74745 12.1798 8.60772 12.5852 8.35162 12.909C8.09552 13.2327 7.73886 13.4547 7.34231 13.5372C6.94575 13.6197 6.53379 13.5577 6.17649 13.3616C5.81918 13.1656 5.5386 12.8476 5.38246 12.4618ZM4.48553 13.5746C3.45378 13.1915 2.51671 12.5773 1.74136 11.7761C1.26195 11.8337 0.819729 12.0714 0.498699 12.444C0.17767 12.8166 0.000198915 13.2982 0 13.7971V14.6295C0 15.1469 0.15576 15.6518 0.446278 16.0733C1.79561 18.0311 4.00425 19 6.99694 19C9.98962 19 12.1991 18.0302 13.5511 16.0733C13.843 15.6513 13.9999 15.1455 14 14.6267V13.7962C14 13.2567 13.7928 12.7392 13.4239 12.3575C13.0551 11.9758 12.5548 11.7612 12.0329 11.7607H10.0596C10.0598 12.4346 9.85196 13.0909 9.46644 13.6342C9.08092 14.1776 8.53779 14.5796 7.91605 14.7818C7.2943 14.984 6.62637 14.9759 6.0094 14.7586C5.39243 14.5414 4.85859 14.1272 4.48553 13.5746ZM10.4972 6.33439C10.4972 5.80553 10.385 5.28311 10.1687 4.80388C9.95235 4.32465 9.63704 3.90028 9.24495 3.56062C8.88099 3.24585 8.45892 3.01088 8.0044 2.86998C7.54988 2.72909 7.0724 2.68521 6.60096 2.74102C6.12953 2.79682 5.674 2.95115 5.26204 3.19461C4.85009 3.43808 4.49032 3.7656 4.20459 4.15728C3.91887 4.54895 3.71316 4.9966 3.59997 5.47302C3.48677 5.94944 3.46845 6.44468 3.54613 6.92864C3.62381 7.41261 3.79585 7.87519 4.05181 8.28828C4.30777 8.70137 4.6423 9.05634 5.03506 9.33161C5.58557 8.85656 6.27986 8.59627 6.99694 8.5961C7.74336 8.5961 8.42765 8.87203 8.95969 9.33161C9.43335 8.99996 9.82118 8.55333 10.0892 8.03082C10.3572 7.5083 10.4973 6.92583 10.4972 6.33439Z" fill="url(#paint0_linear_2424_12488)"/>
<defs>
<linearGradient id="paint0_linear_2424_12488" x1="7.00044" y1="1.17174e-06" x2="11.1632" y2="18.0377" gradientUnits="userSpaceOnUse">
<stop stop-color="#1095ED"/>
<stop offset="1" stop-color="#08568A"/>
</linearGradient>
</defs>
</svg>
