<svg width="30" height="31" viewBox="0 0 30 31" fill="none" xmlns="http://www.w3.org/2000/svg">
<path d="M15 3.5C16.5913 3.5 18.1174 4.13214 19.2426 5.25736C20.3679 6.38258 21 7.9087 21 9.5C21 11.0913 20.3679 12.6174 19.2426 13.7426C18.1174 14.8679 16.5913 15.5 15 15.5C13.4087 15.5 11.8826 14.8679 10.7574 13.7426C9.63214 12.6174 9 11.0913 9 9.5C9 7.9087 9.63214 6.38258 10.7574 5.25736C11.8826 4.13214 13.4087 3.5 15 3.5ZM15 18.5C21.63 18.5 27 21.185 27 24.5V27.5H3V24.5C3 21.185 8.37 18.5 15 18.5Z" fill="url(#paint0_linear_2758_11895)"/>
<defs>
<linearGradient id="paint0_linear_2758_11895" x1="27" y1="7.5" x2="4.89775" y2="13.9765" gradientUnits="userSpaceOnUse">
<stop stop-color="#1095ED"/>
<stop offset="1" stop-color="#E2435F"/>
</linearGradient>
</defs>
</svg>
