<svg width="30" height="31" viewBox="0 0 30 31" fill="none" xmlns="http://www.w3.org/2000/svg">
<path fill-rule="evenodd" clip-rule="evenodd" d="M17.5714 3.5H12.4286V11.228C12.4286 11.4509 12.5229 11.6651 12.6926 11.8246C12.8662 11.9846 13.0941 12.0729 13.3303 12.0714H16.6697C16.9097 12.0714 17.1377 11.9823 17.3074 11.8246C17.39 11.7486 17.4561 11.6564 17.5015 11.5538C17.5469 11.4511 17.5707 11.3402 17.5714 11.228V3.5ZM10.2857 3.5H5.57143C4.88944 3.5 4.23539 3.77092 3.75315 4.25315C3.27092 4.73539 3 5.38944 3 6.07143L3 24.9286C3 25.6106 3.27092 26.2646 3.75315 26.7468C4.23539 27.2291 4.88944 27.5 5.57143 27.5H24.4286C25.1106 27.5 25.7646 27.2291 26.2468 26.7468C26.7291 26.2646 27 25.6106 27 24.9286V6.07143C27 5.38944 26.7291 4.73539 26.2468 4.25315C25.7646 3.77092 25.1106 3.5 24.4286 3.5H19.7143V11.228C19.7143 12.068 19.3577 12.8394 18.7714 13.388C18.192 13.9314 17.4343 14.2143 16.6697 14.2143H13.3303C12.5657 14.2143 11.808 13.9314 11.2286 13.388C10.9319 13.1117 10.6951 12.7774 10.5329 12.4059C10.3708 12.0343 10.2866 11.6334 10.2857 11.228V3.5ZM18.0171 22.5286C18.0171 21.9354 18.4971 21.4554 19.0869 21.4554H22.5394C22.8236 21.4554 23.0961 21.5683 23.297 21.7692C23.498 21.9702 23.6109 22.2427 23.6109 22.5269C23.6109 22.811 23.498 23.0835 23.297 23.2845C23.0961 23.4854 22.8236 23.5983 22.5394 23.5983H19.0869C18.8027 23.5983 18.5302 23.4854 18.3292 23.2845C18.1283 23.0835 18.0154 22.811 18.0154 22.5269L18.0171 22.5286Z" fill="url(#paint0_linear_2758_28053)"/>
<defs>
<linearGradient id="paint0_linear_2758_28053" x1="27" y1="7.5" x2="4.89775" y2="13.9765" gradientUnits="userSpaceOnUse">
<stop stop-color="#1095ED"/>
<stop offset="1" stop-color="#E2435F"/>
</linearGradient>
</defs>
</svg>
