<svg width="30" height="31" viewBox="0 0 30 31" fill="none" xmlns="http://www.w3.org/2000/svg">
<path d="M9.13043 15.5C12 15.5 14.3478 13.1375 14.3478 10.25C14.3478 7.3625 12 5 9.13043 5C6.26087 5 3.91304 7.3625 3.91304 10.25C3.91304 13.1375 6.26087 15.5 9.13043 15.5ZM14.3478 26V19.0437C12.913 18.5188 11.087 18.125 9.13043 18.125C4.04348 18.125 0 20.4875 0 23.375V26H14.3478ZM27.3913 5H19.5652C18.1304 5 16.9565 6.18125 16.9565 7.625V23.375C16.9565 24.8188 18.1304 26 19.5652 26H27.3913C28.8261 26 30 24.8188 30 23.375V7.625C30 6.18125 28.8261 5 27.3913 5ZM23.4783 23.375H20.8696V7.625H23.4783V23.375Z" fill="url(#paint0_linear_2758_25913)"/>
<defs>
<linearGradient id="paint0_linear_2758_25913" x1="30" y1="8.5" x2="4.47307" y2="19.1857" gradientUnits="userSpaceOnUse">
<stop stop-color="#1095ED"/>
<stop offset="1" stop-color="#E2435F"/>
</linearGradient>
</defs>
</svg>
