<svg width="60" height="60" viewBox="0 0 60 60" fill="none" xmlns="http://www.w3.org/2000/svg">
<path d="M25.1474 37.3855L25.1238 37.3285C24.7688 37.2282 24.4169 37.1168 24.0684 36.9947L24.0422 36.9838C20.4157 35.701 17.2679 33.278 15.0395 30.0538C12.8111 26.8297 11.6136 22.9658 11.6147 19.0032C11.6135 14.1399 13.4163 9.46128 16.6518 5.93107C19.8873 2.40086 24.309 0.287866 29.0063 0.0273084C33.7035 -0.233249 38.3186 1.37847 41.9009 4.5305C45.4831 7.68253 47.7598 12.1348 48.262 16.9703C48.3775 18.0885 47.4849 19.0032 46.3981 19.0032C45.3113 19.0032 44.4423 18.0858 44.298 16.973C43.9488 14.3466 42.9294 11.8636 41.3447 9.77929C39.7599 7.69499 37.6669 6.08455 35.2808 5.11349C32.8947 4.14243 30.3015 3.84578 27.7677 4.25402C25.234 4.66226 22.8511 5.76066 20.8639 7.43635C18.8767 9.11203 17.357 11.3045 16.4609 13.7886C15.5648 16.2726 15.3246 18.9585 15.765 21.5703C16.2054 24.1821 17.3106 26.6255 18.9669 28.6494C20.6232 30.6734 22.771 32.2048 25.1894 33.0864C25.6766 31.9479 26.5275 31.0172 27.5994 30.4502C28.6714 29.8831 29.8994 29.7143 31.0774 29.972C32.2555 30.2296 33.3121 30.8981 34.0702 31.8654C34.8282 32.8326 35.2416 34.0399 35.2411 35.2848C35.2424 36.5394 34.8232 37.7557 34.0549 38.7269C33.2866 39.698 32.2166 40.364 31.0269 40.6116C29.8373 40.8592 28.6014 40.6731 27.5295 40.0849C26.4575 39.4968 25.6158 38.5429 25.1474 37.3855ZM22.4566 40.7238C19.3614 39.5745 16.5501 37.732 14.2241 35.3282C12.7859 35.5012 11.4592 36.2143 10.4961 37.3321C9.53301 38.4499 9.0006 39.8945 9 41.3914V43.8884C9 45.4408 9.46728 46.9553 10.3388 48.22C14.3868 54.0932 21.0127 57 29.9908 57C38.9689 57 45.5974 54.0905 49.6533 48.22C50.5289 46.954 50.9997 45.4366 51 43.8802V41.3887C51 39.7701 50.3784 38.2177 49.2718 37.0726C48.1653 35.9275 46.6643 35.2835 45.0986 35.2821H39.1789C39.1793 37.3037 38.5559 39.2727 37.3993 40.9027C36.2428 42.5327 34.6134 43.7388 32.7481 44.3454C30.8829 44.9521 28.8791 44.9278 27.0282 44.2759C25.1773 43.6241 23.5758 42.3815 22.4566 40.7238ZM40.4915 19.0032C40.4915 17.4166 40.1551 15.8493 39.5061 14.4116C38.8571 12.974 37.9111 11.7008 36.7349 10.6819C35.643 9.73755 34.3768 9.03264 33.0132 8.60995C31.6496 8.18726 30.2172 8.05563 28.8029 8.22305C27.3886 8.39047 26.022 8.85345 24.7861 9.58384C23.5503 10.3142 22.471 11.2968 21.6138 12.4718C20.7566 13.6469 20.1395 14.9898 19.7999 16.4191C19.4603 17.8483 19.4054 19.334 19.6384 20.7859C19.8714 22.2378 20.3875 23.6256 21.1554 24.8648C21.9233 26.1041 22.9269 27.169 24.1052 27.9948C25.7567 26.5697 27.8396 25.7888 29.9908 25.7883C32.2301 25.7883 34.283 26.6161 35.8791 27.9948C37.3001 26.9999 38.4635 25.66 39.2676 24.0925C40.0717 22.5249 40.4919 20.7775 40.4915 19.0032Z" fill="url(#paint0_linear_463_17840)"/>
<path d="M46.5 54C47.8791 54.0018 49.245 53.731 50.5192 53.2032C51.7933 52.6754 52.9506 51.901 53.9245 50.9245C54.901 49.9506 55.6754 48.7933 56.2032 47.5192C56.731 46.245 57.0018 44.8791 57 43.5C57.0017 42.1209 56.731 40.755 56.2032 39.4808C55.6754 38.2067 54.901 37.0494 53.9245 36.0755C52.9506 35.099 51.7933 34.3246 50.5192 33.7968C49.245 33.269 47.8791 32.9982 46.5 33C45.1209 32.9983 43.755 33.269 42.4808 33.7968C41.2067 34.3246 40.0494 35.099 39.0755 36.0755C38.099 37.0494 37.3246 38.2067 36.7968 39.4808C36.269 40.755 35.9983 42.1209 36 43.5C35.9982 44.8791 36.269 46.245 36.7968 47.5192C37.3246 48.7933 38.099 49.9506 39.0755 50.9245C40.0494 51.901 41.2067 52.6754 42.4808 53.2032C43.755 53.731 45.1209 54.0017 46.5 54Z" fill="#192232"/>
<path d="M42.3 43.5L45.45 46.65L51.75 40.35" fill="#192232"/>
<path d="M42.3 43.5L45.45 46.65L51.75 40.35M46.5 54C47.8791 54.0018 49.245 53.731 50.5192 53.2032C51.7933 52.6754 52.9506 51.901 53.9245 50.9245C54.901 49.9506 55.6754 48.7933 56.2032 47.5192C56.731 46.245 57.0018 44.8791 57 43.5C57.0017 42.1209 56.731 40.755 56.2032 39.4808C55.6754 38.2067 54.901 37.0494 53.9245 36.0755C52.9506 35.099 51.7933 34.3246 50.5192 33.7968C49.245 33.269 47.8791 32.9982 46.5 33C45.1209 32.9983 43.755 33.269 42.4808 33.7968C41.2067 34.3246 40.0494 35.099 39.0755 36.0755C38.099 37.0494 37.3246 38.2067 36.7968 39.4808C36.269 40.755 35.9983 42.1209 36 43.5C35.9982 44.8791 36.269 46.245 36.7968 47.5192C37.3246 48.7933 38.099 49.9506 39.0755 50.9245C40.0494 51.901 41.2067 52.6754 42.4808 53.2032C43.755 53.731 45.1209 54.0017 46.5 54Z" stroke="url(#paint1_linear_463_17840)" stroke-width="2" stroke-linecap="round" stroke-linejoin="round"/>
<defs>
<linearGradient id="paint0_linear_463_17840" x1="30.0013" y1="3.51521e-06" x2="42.4896" y2="54.1132" gradientUnits="userSpaceOnUse">
<stop stop-color="#1095ED"/>
<stop offset="1" stop-color="#08568A"/>
</linearGradient>
<linearGradient id="paint1_linear_463_17840" x1="46.5007" y1="33" x2="49.9711" y2="53.4081" gradientUnits="userSpaceOnUse">
<stop stop-color="#1095ED"/>
<stop offset="1" stop-color="#08568A"/>
</linearGradient>
</defs>
</svg>
