<svg width="30" height="31" viewBox="0 0 30 31" fill="none" xmlns="http://www.w3.org/2000/svg">
<path fill-rule="evenodd" clip-rule="evenodd" d="M9.95081 4.05608C9.75759 3.71258 9.39412 3.5 9 3.5C8.60588 3.5 8.24241 3.71258 8.04919 4.05608L3.1401 12.7834C2.95009 13.1211 2.95357 13.5344 3.14923 13.8689C3.34488 14.2035 3.70335 14.4091 4.09091 14.4091H13.9091C14.2967 14.4091 14.6551 14.2035 14.8508 13.8689C15.0464 13.5344 15.0499 13.1211 14.8599 12.7834L9.95081 4.05608ZM21.5455 3.5C20.0988 3.5 18.7114 4.07467 17.6885 5.0976C16.6656 6.12053 16.0909 7.50791 16.0909 8.95455C16.0909 10.4012 16.6656 11.7886 17.6885 12.8115C18.7114 13.8344 20.0988 14.4091 21.5455 14.4091C22.9921 14.4091 24.3795 13.8344 25.4024 12.8115C26.4253 11.7886 27 10.4012 27 8.95455C27 7.50791 26.4253 6.12052 25.4024 5.0976C24.3795 4.07467 22.9921 3.5 21.5455 3.5ZM3.31952 16.9104C2.89349 17.3365 2.89349 18.0272 3.31952 18.4532L6.91177 22.0455L3.31952 25.6377C2.89349 26.0637 2.89349 26.7545 3.31952 27.1805C3.74555 27.6065 4.43627 27.6065 4.8623 27.1805L8.45455 23.5882L12.0468 27.1805C12.4728 27.6065 13.1635 27.6065 13.5896 27.1805C14.0156 26.7545 14.0156 26.0637 13.5896 25.6377L9.99732 22.0455L13.5896 18.4532C14.0156 18.0272 14.0156 17.3365 13.5896 16.9104C13.1635 16.4844 12.4728 16.4844 12.0468 16.9104L8.45455 20.5027L4.8623 16.9104C4.43627 16.4844 3.74555 16.4844 3.31952 16.9104ZM17.1818 16.5909C16.5793 16.5909 16.0909 17.0793 16.0909 17.6818V26.4091C16.0909 27.0116 16.5793 27.5 17.1818 27.5H25.9091C26.5116 27.5 27 27.0116 27 26.4091V17.6818C27 17.0793 26.5116 16.5909 25.9091 16.5909H17.1818ZM13.9091 13.3182L9 4.59091L4.09091 13.3182H13.9091ZM12.0438 12.2273H5.9562L9 6.81607L12.0438 12.2273Z" fill="url(#paint0_linear_2758_27637)"/>
<path fill-rule="evenodd" clip-rule="evenodd" d="M9 4.59091L13.9091 13.3182H4.09091L9 4.59091ZM5.9562 12.2273H12.0438L9 6.81607L5.9562 12.2273Z" fill="url(#paint1_linear_2758_27637)"/>
<defs>
<linearGradient id="paint0_linear_2758_27637" x1="27" y1="7.5" x2="4.89775" y2="13.9765" gradientUnits="userSpaceOnUse">
<stop stop-color="#1095ED"/>
<stop offset="1" stop-color="#E2435F"/>
</linearGradient>
<linearGradient id="paint1_linear_2758_27637" x1="27" y1="7.5" x2="4.89775" y2="13.9765" gradientUnits="userSpaceOnUse">
<stop stop-color="#1095ED"/>
<stop offset="1" stop-color="#E2435F"/>
</linearGradient>
</defs>
</svg>
