<svg width="40" height="40" viewBox="0 0 40 40" fill="none" xmlns="http://www.w3.org/2000/svg">
<g clip-path="url(#clip0_599_43475)">
<rect x="40" width="40" height="40" rx="10" transform="rotate(90 40 0)" fill="url(#paint0_linear_599_43475)"/>
<path d="M32 15.1234V15.2079C32 16.2025 32 16.701 31.7516 17.1082C31.5032 17.5153 31.0508 17.757 30.1484 18.2416L29.1968 18.7506C29.852 16.6131 30.0716 14.3161 30.152 12.3522L30.164 12.0966L30.1664 12.0364C30.9476 12.2978 31.3868 12.4933 31.6604 12.8588C32 13.3133 32 13.9171 32 15.1234ZM8 15.1234V15.2079C8 16.2025 8 16.701 8.2484 17.1082C8.4968 17.5153 8.9492 17.757 9.8516 18.2416L10.8044 18.7506C10.148 16.6131 9.9284 14.3161 9.848 12.3522L9.836 12.0966L9.8348 12.0364C9.0524 12.2978 8.6132 12.4933 8.3396 12.8588C8 13.3133 8 13.9182 8 15.1234Z" fill="white"/>
<path fill-rule="evenodd" clip-rule="evenodd" d="M20 7.99637C22.1408 7.99637 23.9036 8.17795 25.2524 8.39771C26.6192 8.61978 27.302 8.73082 27.8732 9.40859C28.4444 10.0864 28.4132 10.8185 28.3532 12.2828C28.1468 17.3129 27.0212 23.5945 20.9 24.1496V28.2371H22.616C22.8933 28.2373 23.162 28.33 23.3764 28.4995C23.5908 28.6691 23.7376 28.9049 23.792 29.167L24.02 30.2612H27.2C27.4387 30.2612 27.6676 30.3526 27.8364 30.5152C28.0052 30.6779 28.1 30.8986 28.1 31.1286C28.1 31.3587 28.0052 31.5793 27.8364 31.742C27.6676 31.9047 27.4387 31.9961 27.2 31.9961H12.8C12.5613 31.9961 12.3324 31.9047 12.1636 31.742C11.9948 31.5793 11.9 31.3587 11.9 31.1286C11.9 30.8986 11.9948 30.6779 12.1636 30.5152C12.3324 30.3526 12.5613 30.2612 12.8 30.2612H15.98L16.208 29.167C16.2624 28.9049 16.4092 28.6691 16.6236 28.4995C16.838 28.33 17.1067 28.2373 17.384 28.2371H19.1V24.1496C12.98 23.5945 11.8544 17.3117 11.648 12.2828C11.5868 10.8185 11.5568 10.0852 12.128 9.40859C12.698 8.73082 13.3808 8.61978 14.7476 8.39771C16.4838 8.12345 18.2407 7.9892 20 7.99637ZM21.1424 12.853L21.0248 12.6494C20.5688 11.8595 20.3408 11.4662 20 11.4662C19.6592 11.4662 19.4312 11.8595 18.9752 12.6494L18.8576 12.853C18.728 13.0774 18.6632 13.1884 18.5624 13.2624C18.4604 13.3365 18.3344 13.3642 18.0824 13.4186L17.8544 13.4695C16.9688 13.6626 16.526 13.7586 16.4204 14.0848C16.3148 14.4121 16.6172 14.7521 17.2208 15.4322L17.3768 15.608C17.5484 15.8012 17.6348 15.8972 17.6732 16.0175C17.7116 16.1378 17.6984 16.2662 17.6732 16.5241L17.6492 16.7589C17.558 17.6668 17.5124 18.1214 17.7872 18.3226C18.0632 18.5239 18.4784 18.34 19.3076 17.9722L19.5212 17.8773C19.7576 17.7732 19.8752 17.7212 20 17.7212C20.1248 17.7212 20.2424 17.7732 20.4788 17.8773L20.6924 17.9722C21.5216 18.3411 21.9368 18.5239 22.2128 18.3226C22.4888 18.1214 22.442 17.6668 22.3508 16.7589L22.3268 16.5241C22.3016 16.2662 22.2884 16.1378 22.3268 16.0175C22.3652 15.8983 22.4516 15.8012 22.6232 15.608L22.7792 15.4322C23.3828 14.7521 23.6852 14.4121 23.5796 14.0848C23.474 13.7586 23.0312 13.6626 22.1456 13.4695L21.9176 13.4186C21.6656 13.3642 21.5396 13.3376 21.4376 13.2624C21.3368 13.1884 21.272 13.0774 21.1424 12.853Z" fill="white"/>
</g>
<defs>
<linearGradient id="paint0_linear_599_43475" x1="40" y1="20" x2="80" y2="20" gradientUnits="userSpaceOnUse">
<stop stop-color="#1095ED"/>
<stop offset="1" stop-color="#1095ED" stop-opacity="0"/>
</linearGradient>
<clipPath id="clip0_599_43475">
<rect width="40" height="40" fill="white"/>
</clipPath>
</defs>
</svg>
