<svg width="30" height="31" viewBox="0 0 30 31" fill="none" xmlns="http://www.w3.org/2000/svg">
<path d="M20.13 21.65L19.62 21.14C19.44 20.96 19.2252 20.87 18.9756 20.87C18.726 20.87 18.5108 20.96 18.33 21.14C18.1492 21.32 18.0592 21.53 18.06 21.77C18.0608 22.01 18.1508 22.22 18.33 22.4L19.5 23.57C19.68 23.75 19.89 23.84 20.13 23.84C20.37 23.84 20.58 23.75 20.76 23.57L23.67 20.72C23.85 20.54 23.94 20.3248 23.94 20.0744C23.94 19.824 23.85 19.6092 23.67 19.43C23.49 19.2508 23.2748 19.1608 23.0244 19.16C22.774 19.1592 22.5592 19.2492 22.38 19.43L20.13 21.65ZM19.8 10.7C20.14 10.7 20.4252 10.5848 20.6556 10.3544C20.886 10.124 21.0008 9.8392 21 9.5C20.9992 9.1608 20.884 8.876 20.6544 8.6456C20.4248 8.4152 20.14 8.3 19.8 8.3H7.8C7.46 8.3 7.1752 8.4152 6.9456 8.6456C6.716 8.876 6.6008 9.1608 6.6 9.5C6.5992 9.8392 6.7144 10.1244 6.9456 10.3556C7.1768 10.5868 7.4616 10.7016 7.8 10.7H19.8ZM21 27.5C19.34 27.5 17.9252 26.9148 16.7556 25.7444C15.586 24.574 15.0008 23.1592 15 21.5C14.9992 19.8408 15.5844 18.426 16.7556 17.2556C17.9268 16.0852 19.3416 15.5 21 15.5C22.6584 15.5 24.0736 16.0852 25.2456 17.2556C26.4176 18.426 27.0024 19.8408 27 21.5C26.9976 23.1592 26.4124 24.5744 25.2444 25.7456C24.0764 26.9168 22.6616 27.5016 21 27.5ZM3 26.15V5.9C3 5.24 3.2352 4.6752 3.7056 4.2056C4.176 3.736 4.7408 3.5008 5.4 3.5H22.2C22.86 3.5 23.4252 3.7352 23.8956 4.2056C24.366 4.676 24.6008 5.2408 24.6 5.9V12.5C24.6 12.84 24.46 13.1152 24.18 13.3256C23.9 13.536 23.59 13.5908 23.25 13.49C22.69 13.35 22.12 13.25 21.54 13.19C20.96 13.13 20.38 13.1 19.8 13.1H7.8C7.46 13.1 7.1752 13.2152 6.9456 13.4456C6.716 13.676 6.6008 13.9608 6.6 14.3C6.5992 14.6392 6.7144 14.9244 6.9456 15.1556C7.1768 15.3868 7.4616 15.5016 7.8 15.5H15.12C14.78 15.84 14.4652 16.21 14.1756 16.61C13.886 17.01 13.6308 17.44 13.41 17.9H7.8C7.46 17.9 7.1752 18.0152 6.9456 18.2456C6.716 18.476 6.6008 18.7608 6.6 19.1C6.5992 19.4392 6.7144 19.7244 6.9456 19.9556C7.1768 20.1868 7.4616 20.3016 7.8 20.3H12.69C12.65 20.5 12.6252 20.6952 12.6156 20.8856C12.606 21.076 12.6008 21.2808 12.6 21.5C12.6 22.02 12.65 22.53 12.75 23.03C12.85 23.53 12.98 24.03 13.14 24.53C13.24 24.75 13.2 24.9252 13.02 25.0556C12.84 25.186 12.67 25.1708 12.51 25.01L12.42 24.92C12.3 24.8 12.16 24.74 12 24.74C11.84 24.74 11.7 24.8 11.58 24.92L10.62 25.88C10.5 26 10.36 26.06 10.2 26.06C10.04 26.06 9.9 26 9.78 25.88L8.82 24.92C8.7 24.8 8.56 24.74 8.4 24.74C8.24 24.74 8.1 24.8 7.98 24.92L7.02 25.88C6.9 26 6.76 26.06 6.6 26.06C6.44 26.06 6.3 26 6.18 25.88L5.22 24.92C5.1 24.8 4.96 24.74 4.8 24.74C4.64 24.74 4.5 24.8 4.38 24.92L3.42 25.88L3 26.15Z" fill="url(#paint0_linear_2758_27918)"/>
<defs>
<linearGradient id="paint0_linear_2758_27918" x1="27" y1="7.5" x2="4.89775" y2="13.9765" gradientUnits="userSpaceOnUse">
<stop stop-color="#1095ED"/>
<stop offset="1" stop-color="#E2435F"/>
</linearGradient>
</defs>
</svg>
