<svg width="30" height="31" viewBox="0 0 30 31" fill="none" xmlns="http://www.w3.org/2000/svg">
<path fill-rule="evenodd" clip-rule="evenodd" d="M25.0931 12.9324C25.0232 12.9291 24.9531 12.9279 24.8831 12.9288H21.9609C19.5704 12.9288 17.5231 14.826 17.5231 17.3003C17.5231 19.7746 19.5704 21.6718 21.9621 21.6718H24.8819C24.9551 21.6718 25.0259 21.6718 25.0919 21.667C25.5853 21.6355 26.0505 21.4256 26.4007 21.0766C26.7508 20.7276 26.9621 20.2631 26.9952 19.7698C27 19.699 27 19.6234 27 19.5538V15.0468C27 14.9772 27 14.9016 26.9952 14.8308C26.9622 14.3377 26.751 13.8734 26.4011 13.5244C26.0512 13.1754 25.5863 12.9654 25.0931 12.9336M21.7053 18.4667C22.321 18.4667 22.8214 17.9459 22.8214 17.3015C22.8214 16.6571 22.321 16.1363 21.7053 16.1363C21.0897 16.1363 20.5905 16.6571 20.5905 17.3015C20.5905 17.9459 21.0885 18.4667 21.7053 18.4667Z" fill="url(#paint0_linear_2758_7167)"/>
<path fill-rule="evenodd" clip-rule="evenodd" d="M24.8819 23.4201C24.9221 23.4187 24.9621 23.4268 24.9986 23.4436C25.0351 23.4605 25.0672 23.4857 25.0921 23.5172C25.1171 23.5488 25.1344 23.5857 25.1425 23.6251C25.1505 23.6645 25.1493 23.7053 25.1387 23.7441C24.9059 24.5745 24.5375 25.2825 23.9458 25.8776C23.0806 26.75 21.9825 27.1376 20.6265 27.3212C19.3088 27.5 17.6263 27.5 15.4998 27.5H13.0553C10.93 27.5 9.24631 27.5 7.92865 27.3212C6.57258 27.1376 5.47452 26.75 4.60928 25.8776C3.74404 25.0077 3.36002 23.9001 3.17761 22.5345C3 21.205 3 19.5082 3 17.3663V17.2343C3 15.0924 3 13.3944 3.17761 12.0673C3.36002 10.7005 3.74404 9.59653 4.60808 8.72175C5.47332 7.85058 6.57138 7.46179 7.92745 7.27939C9.24631 7.1006 10.93 7.1006 13.0553 7.1006H15.4998C17.6251 7.1006 19.3088 7.1006 20.6265 7.27939C21.9825 7.46299 23.0806 7.85058 23.9458 8.72175C24.5375 9.31813 24.9059 10.0261 25.1387 10.8577C25.149 10.8964 25.1501 10.937 25.142 10.9763C25.1338 11.0155 25.1165 11.0523 25.0915 11.0837C25.0666 11.1151 25.0346 11.1402 24.9982 11.157C24.9618 11.1738 24.922 11.1818 24.8819 11.1805H21.9621C18.6812 11.1805 15.7902 13.7928 15.7902 17.3003C15.7902 20.8078 18.6824 23.4201 21.9633 23.4201H24.8819ZM7.33702 11.7637C7.22276 11.7641 7.10972 11.7871 7.00434 11.8313C6.89896 11.8754 6.80331 11.9399 6.72286 12.021C6.6424 12.1021 6.57871 12.1983 6.53542 12.304C6.49214 12.4098 6.4701 12.523 6.47057 12.6372C6.47057 13.1208 6.85819 13.512 7.33702 13.512H11.9644C12.4445 13.512 12.8321 13.1208 12.8321 12.6372C12.8327 12.4064 12.7417 12.1847 12.579 12.0209C12.4164 11.8572 12.1953 11.7646 11.9644 11.7637H7.33702Z" fill="url(#paint1_linear_2758_7167)"/>
<path d="M9.93275 5.92943L12.2825 4.19789C12.8956 3.74462 13.638 3.5 14.4006 3.5C15.1631 3.5 15.9055 3.74462 16.5187 4.19789L18.8816 5.93903C17.8927 5.90064 16.7887 5.90064 15.5802 5.90064H12.9761C11.8696 5.90064 10.8532 5.90064 9.93275 5.92943Z" fill="url(#paint2_linear_2758_7167)"/>
<defs>
<linearGradient id="paint0_linear_2758_7167" x1="27" y1="7.5" x2="4.89775" y2="13.9765" gradientUnits="userSpaceOnUse">
<stop stop-color="#1095ED"/>
<stop offset="1" stop-color="#E2435F"/>
</linearGradient>
<linearGradient id="paint1_linear_2758_7167" x1="27" y1="7.5" x2="4.89775" y2="13.9765" gradientUnits="userSpaceOnUse">
<stop stop-color="#1095ED"/>
<stop offset="1" stop-color="#E2435F"/>
</linearGradient>
<linearGradient id="paint2_linear_2758_7167" x1="27" y1="7.5" x2="4.89775" y2="13.9765" gradientUnits="userSpaceOnUse">
<stop stop-color="#1095ED"/>
<stop offset="1" stop-color="#E2435F"/>
</linearGradient>
</defs>
</svg>
