<svg width="48" height="30" viewBox="0 0 48 30" fill="none" xmlns="http://www.w3.org/2000/svg">
<path d="M15.525 15.1768C15.525 16.1571 14.7167 16.9045 13.6917 16.9045C12.925 16.9045 12.3583 16.4866 12.3583 15.6991C12.3583 14.7188 13.15 13.9312 14.1667 13.9312C14.9417 13.9312 15.525 14.3893 15.525 15.1768ZM6.70833 11.2795H6.31667C6.19167 11.2795 6.06667 11.3598 6.05 11.4964L5.69167 13.642L6.375 13.6179C7.29167 13.6179 8 13.4973 8.16667 12.4768C8.35833 11.4 7.65 11.2795 6.70833 11.2795ZM30.375 11.2795H30C29.85 11.2795 29.75 11.3598 29.7333 11.4964L29.3833 13.642L30.05 13.6179C31.1333 13.6179 31.8833 13.3768 31.8833 12.1714C31.875 11.3196 31.0833 11.2795 30.375 11.2795ZM48 0.857143V29.1429C48 31.2723 46.2083 33 44 33H4C1.79167 33 0 31.2723 0 29.1429V0.857143C0 -1.27232 1.79167 -3 4 -3H44C46.2083 -3 48 -1.27232 48 0.857143ZM10.6917 11.7375C10.6917 10.05 9.34167 9.4875 7.8 9.4875H4.46667C4.25833 9.4875 4.05 9.64821 4.03333 9.86518L2.66667 18.0696C2.64167 18.2304 2.76667 18.3911 2.93333 18.3911H4.51667C4.74167 18.3911 4.95 18.158 4.975 17.933L5.35 15.7955C5.43333 15.217 6.45 15.4179 6.85 15.4179C9.23333 15.4179 10.6917 14.0518 10.6917 11.7375ZM17.7083 12.4446H16.125C15.8083 12.4446 15.7917 12.8866 15.775 13.1036C15.2917 12.4205 14.5917 12.3 13.8 12.3C11.7583 12.3 10.2 14.0277 10.2 15.9321C10.2 17.4991 11.2167 18.5196 12.8417 18.5196C13.5917 18.5196 14.525 18.1259 15.05 17.5634C15.0083 17.6839 14.9667 17.9411 14.9667 18.0616C14.9667 18.2464 15.05 18.383 15.2333 18.383H16.6667C16.8917 18.383 17.0833 18.15 17.125 17.925L17.975 12.758C18 12.6054 17.875 12.4446 17.7083 12.4446ZM21.0833 20.3116L26.3917 12.8705C26.4333 12.8304 26.4333 12.7902 26.4333 12.7339C26.4333 12.5973 26.3083 12.4527 26.1667 12.4527H24.5667C24.425 12.4527 24.275 12.533 24.1917 12.6536L21.9833 15.7875L21.0667 12.7741C21 12.5973 20.8167 12.4527 20.6083 12.4527H19.05C18.9083 12.4527 18.7833 12.5973 18.7833 12.7339C18.7833 12.8304 20.4083 17.2982 20.55 17.7241C20.325 18.0295 18.8417 20.0223 18.8417 20.2634C18.8417 20.408 18.9667 20.5205 19.1083 20.5205H20.7083C20.8583 20.5125 21 20.4321 21.0833 20.3116ZM34.3583 11.7375C34.3583 10.05 33.0083 9.4875 31.4667 9.4875H28.1583C27.9333 9.4875 27.725 9.64821 27.7 9.86518L26.35 18.0616C26.3333 18.2223 26.4583 18.383 26.6167 18.383H28.325C28.4917 18.383 28.6167 18.2625 28.6583 18.1259L29.0333 15.7955C29.1167 15.217 30.1333 15.4179 30.5333 15.4179C32.9 15.4179 34.3583 14.0518 34.3583 11.7375ZM41.375 12.4446H39.7917C39.475 12.4446 39.4583 12.8866 39.4333 13.1036C38.975 12.4205 38.2667 12.3 37.4583 12.3C35.4167 12.3 33.8583 14.0277 33.8583 15.9321C33.8583 17.4991 34.875 18.5196 36.5 18.5196C37.275 18.5196 38.2083 18.1259 38.7083 17.5634C38.6833 17.6839 38.625 17.9411 38.625 18.0616C38.625 18.2464 38.7083 18.383 38.8917 18.383H40.3333C40.5583 18.383 40.75 18.15 40.7917 17.925L41.6417 12.758C41.6667 12.6054 41.5417 12.4446 41.375 12.4446ZM45.3333 9.76875C45.3333 9.60804 45.2083 9.4875 45.0667 9.4875H43.525C43.4 9.4875 43.275 9.58393 43.2583 9.70446L41.9083 18.0616L41.8833 18.1018C41.8833 18.2464 42.0083 18.383 42.175 18.383H43.55C43.7583 18.383 43.9667 18.15 43.9833 17.925L45.3333 9.79286V9.76875ZM37.8333 13.9312C36.8167 13.9312 36.025 14.7107 36.025 15.6991C36.025 16.4786 36.6083 16.9045 37.375 16.9045C38.375 16.9045 39.1833 16.1652 39.1833 15.1768C39.1917 14.3893 38.6083 13.9312 37.8333 13.9312Z" fill="#A5AECC"/>
</svg>
