<svg width="40" height="40" viewBox="0 0 40 40" fill="none" xmlns="http://www.w3.org/2000/svg">
<g clip-path="url(#clip0_599_33528)">
<rect x="40" width="40" height="40" rx="10" transform="rotate(90 40 0)" fill="url(#paint0_linear_599_33528)"/>
<path d="M11 29.5H15V27.5H11V29.5Z" fill="url(#paint1_linear_599_33528)"/>
<path d="M8 29.5H11V27.5H8V29.5Z" fill="url(#paint2_linear_599_33528)"/>
<path d="M18 29.5V27.5H15V29.5H18Z" fill="url(#paint3_linear_599_33528)"/>
<path d="M15 11.5H11V27.5H15V11.5Z" fill="url(#paint4_linear_599_33528)"/>
<path d="M15 9.5H11V11.5H15V9.5Z" fill="url(#paint5_linear_599_33528)"/>
<path d="M18 9.5H15V11.5H18V9.5Z" fill="url(#paint6_linear_599_33528)"/>
<path d="M11 9.5H8V11.5H11V9.5Z" fill="url(#paint7_linear_599_33528)"/>
<path d="M18 29.5H22V27.5H18V29.5Z" fill="url(#paint8_linear_599_33528)"/>
<path d="M25 29.5V27.5H22V29.5H25Z" fill="url(#paint9_linear_599_33528)"/>
<path d="M22 11.5H18V27.5H22V11.5Z" fill="url(#paint10_linear_599_33528)"/>
<path d="M22 9.5H18V11.5H22V9.5Z" fill="url(#paint11_linear_599_33528)"/>
<path d="M25 9.5H22V11.5H25V9.5Z" fill="url(#paint12_linear_599_33528)"/>
<path d="M25 29.5H29V27.5H25V29.5Z" fill="url(#paint13_linear_599_33528)"/>
<path d="M32 29.5V27.5H29V29.5H32Z" fill="url(#paint14_linear_599_33528)"/>
<path d="M29 11.5H25V27.5H29V11.5Z" fill="url(#paint15_linear_599_33528)"/>
<path d="M29 9.5H25V11.5H29V9.5Z" fill="url(#paint16_linear_599_33528)"/>
<path d="M32 9.5H29V11.5H32V9.5Z" fill="url(#paint17_linear_599_33528)"/>
</g>
<defs>
<linearGradient id="paint0_linear_599_33528" x1="40" y1="20" x2="80" y2="20" gradientUnits="userSpaceOnUse">
<stop stop-color="#1095ED"/>
<stop offset="1" stop-color="#1095ED" stop-opacity="0"/>
</linearGradient>
<linearGradient id="paint1_linear_599_33528" x1="20" y1="19" x2="20" y2="36" gradientUnits="userSpaceOnUse">
<stop stop-color="white"/>
<stop offset="1" stop-color="white" stop-opacity="0"/>
</linearGradient>
<linearGradient id="paint2_linear_599_33528" x1="20" y1="19" x2="20" y2="36" gradientUnits="userSpaceOnUse">
<stop stop-color="white"/>
<stop offset="1" stop-color="white" stop-opacity="0"/>
</linearGradient>
<linearGradient id="paint3_linear_599_33528" x1="20" y1="19" x2="20" y2="36" gradientUnits="userSpaceOnUse">
<stop stop-color="white"/>
<stop offset="1" stop-color="white" stop-opacity="0"/>
</linearGradient>
<linearGradient id="paint4_linear_599_33528" x1="20" y1="19" x2="20" y2="36" gradientUnits="userSpaceOnUse">
<stop stop-color="white"/>
<stop offset="1" stop-color="white" stop-opacity="0"/>
</linearGradient>
<linearGradient id="paint5_linear_599_33528" x1="20" y1="19" x2="20" y2="36" gradientUnits="userSpaceOnUse">
<stop stop-color="white"/>
<stop offset="1" stop-color="white" stop-opacity="0"/>
</linearGradient>
<linearGradient id="paint6_linear_599_33528" x1="20" y1="19" x2="20" y2="36" gradientUnits="userSpaceOnUse">
<stop stop-color="white"/>
<stop offset="1" stop-color="white" stop-opacity="0"/>
</linearGradient>
<linearGradient id="paint7_linear_599_33528" x1="20" y1="19" x2="20" y2="36" gradientUnits="userSpaceOnUse">
<stop stop-color="white"/>
<stop offset="1" stop-color="white" stop-opacity="0"/>
</linearGradient>
<linearGradient id="paint8_linear_599_33528" x1="20" y1="19" x2="20" y2="36" gradientUnits="userSpaceOnUse">
<stop stop-color="white"/>
<stop offset="1" stop-color="white" stop-opacity="0"/>
</linearGradient>
<linearGradient id="paint9_linear_599_33528" x1="20" y1="19" x2="20" y2="36" gradientUnits="userSpaceOnUse">
<stop stop-color="white"/>
<stop offset="1" stop-color="white" stop-opacity="0"/>
</linearGradient>
<linearGradient id="paint10_linear_599_33528" x1="20" y1="19" x2="20" y2="36" gradientUnits="userSpaceOnUse">
<stop stop-color="white"/>
<stop offset="1" stop-color="white" stop-opacity="0"/>
</linearGradient>
<linearGradient id="paint11_linear_599_33528" x1="20" y1="19" x2="20" y2="36" gradientUnits="userSpaceOnUse">
<stop stop-color="white"/>
<stop offset="1" stop-color="white" stop-opacity="0"/>
</linearGradient>
<linearGradient id="paint12_linear_599_33528" x1="20" y1="19" x2="20" y2="36" gradientUnits="userSpaceOnUse">
<stop stop-color="white"/>
<stop offset="1" stop-color="white" stop-opacity="0"/>
</linearGradient>
<linearGradient id="paint13_linear_599_33528" x1="20" y1="19" x2="20" y2="36" gradientUnits="userSpaceOnUse">
<stop stop-color="white"/>
<stop offset="1" stop-color="white" stop-opacity="0"/>
</linearGradient>
<linearGradient id="paint14_linear_599_33528" x1="20" y1="19" x2="20" y2="36" gradientUnits="userSpaceOnUse">
<stop stop-color="white"/>
<stop offset="1" stop-color="white" stop-opacity="0"/>
</linearGradient>
<linearGradient id="paint15_linear_599_33528" x1="20" y1="19" x2="20" y2="36" gradientUnits="userSpaceOnUse">
<stop stop-color="white"/>
<stop offset="1" stop-color="white" stop-opacity="0"/>
</linearGradient>
<linearGradient id="paint16_linear_599_33528" x1="20" y1="19" x2="20" y2="36" gradientUnits="userSpaceOnUse">
<stop stop-color="white"/>
<stop offset="1" stop-color="white" stop-opacity="0"/>
</linearGradient>
<linearGradient id="paint17_linear_599_33528" x1="20" y1="19" x2="20" y2="36" gradientUnits="userSpaceOnUse">
<stop stop-color="white"/>
<stop offset="1" stop-color="white" stop-opacity="0"/>
</linearGradient>
<clipPath id="clip0_599_33528">
<rect width="40" height="40" fill="white"/>
</clipPath>
</defs>
</svg>
