<svg width="20" height="20" viewBox="0 0 20 20" fill="none" xmlns="http://www.w3.org/2000/svg">
<path d="M16.99 8.19948C16.7207 7.91805 16.4421 7.62805 16.3371 7.37305C16.24 7.13948 16.2343 6.75233 16.2286 6.37733C16.2179 5.68019 16.2064 4.89019 15.6571 4.3409C15.1079 3.79162 14.3179 3.78019 13.6207 3.76948C13.2457 3.76376 12.8586 3.75805 12.625 3.6609C12.3707 3.5559 12.08 3.27733 11.7986 3.00805C11.3057 2.53448 10.7457 1.99805 10 1.99805C9.25429 1.99805 8.695 2.53448 8.20143 3.00805C7.92 3.27733 7.63 3.5559 7.375 3.6609C7.14286 3.75805 6.75429 3.76376 6.37929 3.76948C5.68214 3.78019 4.89214 3.79162 4.34286 4.3409C3.79357 4.89019 3.78571 5.68019 3.77143 6.37733C3.76571 6.75233 3.76 7.13948 3.66286 7.37305C3.55786 7.62733 3.27929 7.91805 3.01 8.19948C2.53643 8.69233 2 9.25233 2 9.99805C2 10.7438 2.53643 11.303 3.01 11.7966C3.27929 12.078 3.55786 12.368 3.66286 12.623C3.76 12.8566 3.76571 13.2438 3.77143 13.6188C3.78214 14.3159 3.79357 15.1059 4.34286 15.6552C4.89214 16.2045 5.68214 16.2159 6.37929 16.2266C6.75429 16.2323 7.14143 16.238 7.375 16.3352C7.62929 16.4402 7.92 16.7188 8.20143 16.988C8.69429 17.4616 9.25429 17.998 10 17.998C10.7457 17.998 11.305 17.4616 11.7986 16.988C12.08 16.7188 12.37 16.4402 12.625 16.3352C12.8586 16.238 13.2457 16.2323 13.6207 16.2266C14.3179 16.2159 15.1079 16.2045 15.6571 15.6552C16.2064 15.1059 16.2179 14.3159 16.2286 13.6188C16.2343 13.2438 16.24 12.8566 16.3371 12.623C16.4421 12.3688 16.7207 12.078 16.99 11.7966C17.4636 11.3038 18 10.7438 18 9.99805C18 9.25233 17.4636 8.69305 16.99 8.19948ZM13.2614 8.68805L9.26143 12.688C9.20836 12.7412 9.14534 12.7833 9.07597 12.8121C9.0066 12.8408 8.93224 12.8556 8.85714 12.8556C8.78205 12.8556 8.70769 12.8408 8.63832 12.8121C8.56895 12.7833 8.50593 12.7412 8.45286 12.688L6.73857 10.9738C6.68548 10.9207 6.64336 10.8576 6.61463 10.7883C6.5859 10.7189 6.57111 10.6446 6.57111 10.5695C6.57111 10.4944 6.5859 10.42 6.61463 10.3507C6.64336 10.2813 6.68548 10.2183 6.73857 10.1652C6.84579 10.058 6.99122 9.99773 7.14286 9.99773C7.21794 9.99773 7.29229 10.0125 7.36166 10.0413C7.43102 10.07 7.49405 10.1121 7.54714 10.1652L8.85714 11.4759L12.4529 7.87948C12.5059 7.82638 12.569 7.78427 12.6383 7.75554C12.7077 7.7268 12.7821 7.71201 12.8571 7.71201C12.9322 7.71201 13.0066 7.7268 13.0759 7.75554C13.1453 7.78427 13.2083 7.82638 13.2614 7.87948C13.3145 7.93257 13.3566 7.9956 13.3854 8.06496C13.4141 8.13433 13.4289 8.20868 13.4289 8.28376C13.4289 8.35884 13.4141 8.43319 13.3854 8.50256C13.3566 8.57193 13.3145 8.63496 13.2614 8.68805Z" fill="white"/>
<path d="M13.2614 8.68805L9.26143 12.688C9.20836 12.7412 9.14534 12.7833 9.07597 12.8121C9.0066 12.8408 8.93224 12.8556 8.85714 12.8556C8.78205 12.8556 8.70769 12.8408 8.63832 12.8121C8.56895 12.7833 8.50593 12.7412 8.45286 12.688L6.73857 10.9738C6.68548 10.9207 6.64336 10.8576 6.61463 10.7883C6.5859 10.7189 6.57111 10.6446 6.57111 10.5695C6.57111 10.4944 6.5859 10.42 6.61463 10.3507C6.64336 10.2813 6.68548 10.2183 6.73857 10.1652C6.84579 10.058 6.99122 9.99773 7.14286 9.99773C7.21794 9.99773 7.29229 10.0125 7.36166 10.0413C7.43102 10.07 7.49405 10.1121 7.54714 10.1652L8.85714 11.4759L12.4529 7.87948C12.5059 7.82638 12.569 7.78427 12.6383 7.75554C12.7077 7.7268 12.7821 7.71201 12.8571 7.71201C12.9322 7.71201 13.0066 7.7268 13.0759 7.75554C13.1453 7.78427 13.2083 7.82638 13.2614 7.87948C13.3145 7.93257 13.3566 7.9956 13.3854 8.06496C13.4141 8.13433 13.4289 8.20868 13.4289 8.28376C13.4289 8.35884 13.4141 8.43319 13.3854 8.50256C13.3566 8.57193 13.3145 8.63496 13.2614 8.68805Z" fill="white"/>
<path d="M16.99 8.19948C16.7207 7.91805 16.4421 7.62805 16.3371 7.37305C16.24 7.13948 16.2343 6.75233 16.2286 6.37733C16.2179 5.68019 16.2064 4.89019 15.6571 4.3409C15.1079 3.79162 14.3179 3.78019 13.6207 3.76948C13.2457 3.76376 12.8586 3.75805 12.625 3.6609C12.3707 3.5559 12.08 3.27733 11.7986 3.00805C11.3057 2.53448 10.7457 1.99805 10 1.99805C9.25429 1.99805 8.695 2.53448 8.20143 3.00805C7.92 3.27733 7.63 3.5559 7.375 3.6609C7.14286 3.75805 6.75429 3.76376 6.37929 3.76948C5.68214 3.78019 4.89214 3.79162 4.34286 4.3409C3.79357 4.89019 3.78571 5.68019 3.77143 6.37733C3.76571 6.75233 3.76 7.13948 3.66286 7.37305C3.55786 7.62733 3.27929 7.91805 3.01 8.19948C2.53643 8.69233 2 9.25233 2 9.99805C2 10.7438 2.53643 11.303 3.01 11.7966C3.27929 12.078 3.55786 12.368 3.66286 12.623C3.76 12.8566 3.76571 13.2438 3.77143 13.6188C3.78214 14.3159 3.79357 15.1059 4.34286 15.6552C4.89214 16.2045 5.68214 16.2159 6.37929 16.2266C6.75429 16.2323 7.14143 16.238 7.375 16.3352C7.62929 16.4402 7.92 16.7188 8.20143 16.988C8.69429 17.4616 9.25429 17.998 10 17.998C10.7457 17.998 11.305 17.4616 11.7986 16.988C12.08 16.7188 12.37 16.4402 12.625 16.3352C12.8586 16.238 13.2457 16.2323 13.6207 16.2266C14.3179 16.2159 15.1079 16.2045 15.6571 15.6552C16.2064 15.1059 16.2179 14.3159 16.2286 13.6188C16.2343 13.2438 16.24 12.8566 16.3371 12.623C16.4421 12.3688 16.7207 12.078 16.99 11.7966C17.4636 11.3038 18 10.7438 18 9.99805C18 9.25233 17.4636 8.69305 16.99 8.19948ZM13.2614 8.68805L9.26143 12.688C9.20836 12.7412 9.14534 12.7833 9.07597 12.8121C9.0066 12.8408 8.93224 12.8556 8.85714 12.8556C8.78205 12.8556 8.70769 12.8408 8.63832 12.8121C8.56895 12.7833 8.50593 12.7412 8.45286 12.688L6.73857 10.9738C6.68548 10.9207 6.64337 10.8576 6.61463 10.7883C6.5859 10.7189 6.57111 10.6446 6.57111 10.5695C6.57111 10.4944 6.5859 10.42 6.61463 10.3507C6.64337 10.2813 6.68548 10.2183 6.73857 10.1652C6.84579 10.058 6.99122 9.99773 7.14286 9.99773C7.21794 9.99773 7.29229 10.0125 7.36166 10.0413C7.43102 10.07 7.49405 10.1121 7.54714 10.1652L8.85714 11.4759L12.4529 7.87948C12.5059 7.82638 12.569 7.78427 12.6383 7.75554C12.7077 7.7268 12.7821 7.71201 12.8571 7.71201C12.9322 7.71201 13.0066 7.7268 13.0759 7.75554C13.1453 7.78427 13.2083 7.82638 13.2614 7.87948C13.3145 7.93257 13.3566 7.9956 13.3854 8.06496C13.4141 8.13433 13.4289 8.20868 13.4289 8.28376C13.4289 8.35884 13.4141 8.43319 13.3854 8.50256C13.3566 8.57193 13.3145 8.63496 13.2614 8.68805Z" fill="#1095ED"/>
</svg>
