<svg width="48" height="30" viewBox="0 0 48 30" fill="none" xmlns="http://www.w3.org/2000/svg">
<path d="M39.1758 13.0156C39.1758 13.0156 39.8088 16.0052 39.9513 16.6315H37.1688L38.5023 13.1356C38.4858 13.1602 38.7768 12.4038 38.9433 11.938L39.1758 13.0156ZM48 0.857453V29.1425C47.9996 30.1655 47.578 31.1464 46.8279 31.8698C46.0777 32.5931 45.0605 32.9996 43.9996 33H4.00037C2.93953 32.9996 1.92225 32.5931 1.17212 31.8698C0.421992 31.1464 0.000397543 30.1655 0 29.1425V0.857453C0.000397543 -0.165489 0.421992 -1.14642 1.17212 -1.86975C1.92225 -2.59308 2.93953 -2.99962 4.00037 -3H43.9996C45.0605 -2.99962 46.0777 -2.59308 46.8279 -1.86975C47.578 -1.14642 47.9996 -0.165489 48 0.857453ZM12.7091 21.0429L17.9754 8.57236H14.434L11.1597 17.09L10.8012 15.363L9.6342 9.62531C9.4422 8.82981 8.85122 8.60418 8.11775 8.57236H2.72691L2.66842 8.82113C3.90299 9.11318 5.08723 9.576 6.18431 10.1952L9.16771 21.0429H12.7091ZM20.5764 21.0588L22.6763 8.57236H19.3269L17.236 21.0588H20.5764ZM32.234 16.9772C32.2505 15.5554 31.3505 14.4706 29.4261 13.5782C28.2516 13.0069 27.5346 12.6222 27.5346 12.035C27.5511 11.5041 28.1436 10.9574 29.4591 10.9574C30.3159 10.9341 31.1672 11.0962 31.9505 11.4318L32.2505 11.5678L32.7095 8.86742C31.7519 8.51394 30.7349 8.33398 29.7096 8.3366C26.4007 8.3366 24.0757 10.0404 24.0592 12.466C24.0337 14.258 25.7257 15.2546 26.9932 15.8562C28.2846 16.4666 28.7271 16.8687 28.7271 17.4067C28.7106 18.2427 27.6771 18.6275 26.7187 18.6275C25.3852 18.6275 24.6682 18.4264 23.5763 17.9607L23.1353 17.7597L22.6688 20.5642C23.4518 20.9098 24.9022 21.215 26.4022 21.2309C29.9181 21.2382 32.21 19.5589 32.2355 16.9728L32.234 16.9772ZM43.9996 21.0588L41.2997 8.57236H38.7078C37.9083 8.57236 37.2993 8.79799 36.9573 9.6094L31.982 21.0603H35.4979C35.4979 21.0603 36.0724 19.517 36.1984 19.1887H40.4987C40.5992 19.6313 40.8992 21.0603 40.8992 21.0603L43.9996 21.0588Z" fill="#A5AECC"/>
</svg>
