<svg width="98" height="20" viewBox="0 0 98 20" fill="none" xmlns="http://www.w3.org/2000/svg">
<path d="M0 0.00537109H20.25V19.9947H0V0.00537109ZM21.9375 0.00537109H42.1875V19.9947H21.9375V0.00537109ZM43.875 0.00537109H64.125V19.9947H43.875V0.00537109ZM65.8125 0.00537109H86.0625V19.9947H65.8125V0.00537109ZM87.75 0.00537109H108V19.9947H87.75V0.00537109Z" fill="#555F7F"/>
<path d="M10.1246 13.4774L13.2043 12.707L14.491 16.6216L10.1246 13.4774ZM17.2121 8.41764H11.791L10.1246 3.37866L8.4582 8.41764H3.03711L7.42461 11.541L5.7582 16.58L10.1457 13.4566L12.8457 11.541L17.2121 8.41764ZM32.0621 13.4774L35.1418 12.707L36.4285 16.6216L32.0621 13.4774ZM39.1496 8.41764H33.7285L32.0621 3.37866L30.3957 8.41764H24.9746L29.3621 11.541L27.6957 16.58L32.0832 13.4566L34.7832 11.541L39.1496 8.41764ZM53.9996 13.4774L57.0793 12.707L58.366 16.6216L53.9996 13.4774ZM61.0871 8.41764H55.666L53.9996 3.37866L52.3332 8.41764H46.9121L51.2996 11.541L49.6332 16.58L54.0207 13.4566L56.7207 11.541L61.0871 8.41764ZM75.9371 13.4774L79.0168 12.707L80.3035 16.6216L75.9371 13.4774ZM83.0246 8.41764H77.6035L75.9371 3.37866L74.2707 8.41764H68.8496L73.2371 11.541L71.5707 16.58L75.9582 13.4566L78.6582 11.541L83.0246 8.41764ZM97.8746 13.4774L100.954 12.707L102.241 16.6216L97.8746 13.4774ZM104.962 8.41764H99.541L97.8746 3.37866L96.2082 8.41764H90.7871L95.1746 11.541L93.5082 16.58L97.8957 13.4566L100.596 11.541L104.962 8.41764Z" fill="#0D1021"/>
</svg>
