<svg width="40" height="210" viewBox="0 0 40 210" fill="none" xmlns="http://www.w3.org/2000/svg">
<g clip-path="url(#clip0_17_85)">
<rect width="40" height="210" rx="10" fill="#273147"/>
<rect opacity="0.4" x="-2.15063" y="-0.686535" width="50" height="2" rx="1" transform="rotate(-30 -2.15063 -0.686535)" fill="#0D1021"/>
<rect opacity="0.4" x="-2.15063" y="11.0455" width="50" height="2" rx="1" transform="rotate(-30 -2.15063 11.0455)" fill="#0D1021"/>
<rect opacity="0.4" x="-2.15063" y="22.7776" width="50" height="2" rx="1" transform="rotate(-30 -2.15063 22.7776)" fill="#0D1021"/>
<rect opacity="0.4" x="-2.15063" y="34.5096" width="50" height="2" rx="1" transform="rotate(-30 -2.15063 34.5096)" fill="#0D1021"/>
<rect opacity="0.4" x="-2.15063" y="46.2417" width="50" height="2" rx="1" transform="rotate(-30 -2.15063 46.2417)" fill="#0D1021"/>
<rect opacity="0.4" x="-2.15063" y="57.9737" width="50" height="2" rx="1" transform="rotate(-30 -2.15063 57.9737)" fill="#0D1021"/>
<rect opacity="0.4" x="-2.15063" y="69.7058" width="50" height="2" rx="1" transform="rotate(-30 -2.15063 69.7058)" fill="#0D1021"/>
<rect opacity="0.4" x="-2.15063" y="81.4378" width="50" height="2" rx="1" transform="rotate(-30 -2.15063 81.4378)" fill="#0D1021"/>
<rect opacity="0.4" x="-2.15063" y="93.1699" width="50" height="2" rx="1" transform="rotate(-30 -2.15063 93.1699)" fill="#0D1021"/>
<rect opacity="0.4" x="-2.15063" y="104.902" width="50" height="2" rx="1" transform="rotate(-30 -2.15063 104.902)" fill="#0D1021"/>
<rect opacity="0.4" x="-2.15063" y="116.634" width="50" height="2" rx="1" transform="rotate(-30 -2.15063 116.634)" fill="#0D1021"/>
<rect opacity="0.4" x="-2.15063" y="128.366" width="50" height="2" rx="1" transform="rotate(-30 -2.15063 128.366)" fill="#0D1021"/>
<rect opacity="0.4" x="-2.15063" y="140.098" width="50" height="2" rx="1" transform="rotate(-30 -2.15063 140.098)" fill="#0D1021"/>
<rect opacity="0.4" x="-2.15063" y="151.83" width="50" height="2" rx="1" transform="rotate(-30 -2.15063 151.83)" fill="#0D1021"/>
<rect opacity="0.4" x="-2.15063" y="163.562" width="50" height="2" rx="1" transform="rotate(-30 -2.15063 163.562)" fill="#0D1021"/>
<rect opacity="0.4" x="-2.15063" y="175.294" width="50" height="2" rx="1" transform="rotate(-30 -2.15063 175.294)" fill="#0D1021"/>
<rect opacity="0.4" x="-2.15063" y="187.026" width="50" height="2" rx="1" transform="rotate(-30 -2.15063 187.026)" fill="#0D1021"/>
<rect opacity="0.4" x="-2.15063" y="198.758" width="50" height="2" rx="1" transform="rotate(-30 -2.15063 198.758)" fill="#0D1021"/>
<rect opacity="0.4" x="-2.15063" y="210.49" width="50" height="2" rx="1" transform="rotate(-30 -2.15063 210.49)" fill="#0D1021"/>
<rect opacity="0.4" x="-2.15063" y="222.222" width="50" height="2" rx="1" transform="rotate(-30 -2.15063 222.222)" fill="#0D1021"/>
<rect opacity="0.4" x="-2.15063" y="233.954" width="50" height="2" rx="1" transform="rotate(-30 -2.15063 233.954)" fill="#0D1021"/>
</g>
<defs>
<clipPath id="clip0_17_85">
<rect width="40" height="210" rx="10" fill="white"/>
</clipPath>
</defs>
</svg>
