<svg width="113" height="21" viewBox="0 0 113 21" fill="none" xmlns="http://www.w3.org/2000/svg">
<path fill-rule="evenodd" clip-rule="evenodd" d="M0 0H90V0.0163123C90.0657 0.00552329 90.1325 0 90.2 0H102.2C102.2 0.464129 102.39 0.909248 102.727 1.23744C103.065 1.56563 103.523 1.75 104 1.75C104.477 1.75 104.935 1.56563 105.273 1.23744C105.61 0.909248 105.8 0.464129 105.8 0H111.8C112.118 0 112.423 0.122916 112.649 0.341709C112.874 0.560501 113 0.857247 113 1.16667V19.8333C113 20.1428 112.874 20.4395 112.649 20.6583C112.423 20.8771 112.118 21 111.8 21H105.8C105.8 20.5359 105.61 20.0908 105.273 19.7626C104.935 19.4344 104.477 19.25 104 19.25C103.523 19.25 103.065 19.4344 102.727 19.7626C102.39 20.0908 102.2 20.5359 102.2 21H90.2C90.1325 21 90.0657 20.9945 90 20.9837V21H0V0ZM104 8.75C103.523 8.75 103.065 8.56563 102.727 8.23744C102.39 7.90925 102.2 7.46413 102.2 7C102.2 6.53587 102.39 6.09075 102.727 5.76256C103.065 5.43437 103.523 5.25 104 5.25C104.477 5.25 104.935 5.43437 105.273 5.76256C105.61 6.09075 105.8 6.53587 105.8 7C105.8 7.46413 105.61 7.90925 105.273 8.23744C104.935 8.56563 104.477 8.75 104 8.75ZM102.727 15.2374C103.065 15.5656 103.523 15.75 104 15.75C104.477 15.75 104.935 15.5656 105.273 15.2374C105.61 14.9092 105.8 14.4641 105.8 14C105.8 13.5359 105.61 13.0908 105.273 12.7626C104.935 12.4344 104.477 12.25 104 12.25C103.523 12.25 103.065 12.4344 102.727 12.7626C102.39 13.0908 102.2 13.5359 102.2 14C102.2 14.4641 102.39 14.9092 102.727 15.2374Z" fill="url(#paint0_linear_16_21)"/>
<defs>
<linearGradient id="paint0_linear_16_21" x1="0" y1="10.5" x2="113" y2="10.5" gradientUnits="userSpaceOnUse">
<stop stop-color="#43E283" stop-opacity="0"/>
<stop offset="1" stop-color="#43E283"/>
</linearGradient>
</defs>
</svg>
