<svg width="150" height="32" viewBox="0 0 150 32" fill="none" xmlns="http://www.w3.org/2000/svg">
<path fill-rule="evenodd" clip-rule="evenodd" d="M0 0H94.8453V0.0248569C94.9456 0.00841645 95.0479 0 95.151 0H113.493C113.493 0.707244 113.782 1.38552 114.298 1.88562C114.814 2.38572 115.514 2.66667 116.244 2.66667C116.973 2.66667 117.673 2.38572 118.189 1.88562C118.705 1.38552 118.995 0.707244 118.995 0H148.166C148.652 0 149.119 0.187301 149.463 0.520699C149.807 0.854097 150 1.30628 150 1.77778V30.2222C150 30.6937 149.807 31.1459 149.463 31.4793C149.119 31.8127 148.652 32 148.166 32H118.995C118.995 31.2928 118.705 30.6145 118.189 30.1144C117.673 29.6143 116.973 29.3333 116.244 29.3333C115.514 29.3333 114.814 29.6143 114.298 30.1144C113.782 30.6145 113.493 31.2928 113.493 32H95.151C95.0479 32 94.9456 31.9916 94.8453 31.9751V32H0V0ZM116.244 13.3333C115.514 13.3333 114.814 13.0524 114.298 12.5523C113.782 12.0522 113.493 11.3739 113.493 10.6667C113.493 9.95942 113.782 9.28115 114.298 8.78105C114.814 8.28095 115.514 8 116.244 8C116.973 8 117.673 8.28095 118.189 8.78105C118.705 9.28115 118.995 9.95942 118.995 10.6667C118.995 11.3739 118.705 12.0522 118.189 12.5523C117.673 13.0524 116.973 13.3333 116.244 13.3333ZM114.298 23.219C114.814 23.719 115.514 24 116.244 24C116.973 24 117.673 23.719 118.189 23.219C118.705 22.7189 118.995 22.0406 118.995 21.3333C118.995 20.6261 118.705 19.9478 118.189 19.4477C117.673 18.9476 116.973 18.6667 116.244 18.6667C115.514 18.6667 114.814 18.9476 114.298 19.4477C113.782 19.9478 113.493 20.6261 113.493 21.3333C113.493 22.0406 113.782 22.7189 114.298 23.219Z" fill="url(#paint0_linear_16_15)"/>
<defs>
<linearGradient id="paint0_linear_16_15" x1="0" y1="16" x2="107" y2="16" gradientUnits="userSpaceOnUse">
<stop stop-color="#43E283" stop-opacity="0"/>
<stop offset="1" stop-color="#43E283"/>
</linearGradient>
</defs>
</svg>
